<svg xmlns="http://www.w3.org/2000/svg" xmlns:xlink="http://www.w3.org/1999/xlink" viewBox="0 0 600 400"><defs><style>.cls-1{fill:none;}.cls-2{isolation:isolate;}.cls-3{clip-path:url(#clip-path);}.cls-4{fill:#f1f1f4;}.cls-5{fill:#e0f3ff;}.cls-6{fill:url(#Áåçûìÿííûé_ãðàäèåíò_29);}.cls-7{fill:url(#Áåçûìÿííûé_ãðàäèåíò_28);}.cls-8{fill:#e5e2ff;}.cls-9{fill:url(#Áåçûìÿííûé_ãðàäèåíò_28-2);}.cls-10,.cls-11{opacity:0.62;}.cls-10,.cls-100,.cls-101,.cls-11,.cls-120,.cls-19,.cls-20,.cls-21,.cls-24,.cls-26,.cls-32,.cls-35,.cls-37,.cls-40,.cls-41,.cls-42,.cls-43,.cls-44,.cls-45,.cls-46,.cls-47,.cls-48,.cls-49,.cls-50,.cls-51,.cls-52,.cls-53,.cls-54,.cls-55,.cls-56,.cls-59,.cls-60,.cls-61,.cls-62,.cls-63,.cls-64,.cls-68,.cls-79,.cls-82,.cls-83,.cls-84,.cls-88,.cls-89,.cls-96,.cls-97,.cls-98,.cls-99{mix-blend-mode:multiply;}.cls-10{fill:url(#Áåçûìÿííûé_ãðàäèåíò_27);}.cls-11{fill:url(#Áåçûìÿííûé_ãðàäèåíò_94);}.cls-12,.cls-120,.cls-15,.cls-16,.cls-24,.cls-26,.cls-41,.cls-42,.cls-43,.cls-44,.cls-45,.cls-46,.cls-47,.cls-48,.cls-49,.cls-51,.cls-53,.cls-54,.cls-55,.cls-56,.cls-59,.cls-61,.cls-62,.cls-63,.cls-64,.cls-84{opacity:0.5;}.cls-12,.cls-15,.cls-16{mix-blend-mode:screen;}.cls-12{fill:url(#Áåçûìÿííûé_ãðàäèåíò_95);}.cls-13{fill:#fff;}.cls-14{fill:url(#Áåçûìÿííûé_ãðàäèåíò_74);}.cls-15{fill:url(#Áåçûìÿííûé_ãðàäèåíò_83);}.cls-16{fill:url(#Áåçûìÿííûé_ãðàäèåíò_83-2);}.cls-17{fill:url(#Áåçûìÿííûé_ãðàäèåíò_26);}.cls-18{fill:url(#Áåçûìÿííûé_ãðàäèåíò_26-2);}.cls-19,.cls-20,.cls-21,.cls-50{opacity:0.76;}.cls-19{fill:url(#Áåçûìÿííûé_ãðàäèåíò_70);}.cls-20{fill:url(#Áåçûìÿííûé_ãðàäèåíò_70-2);}.cls-21{fill:url(#Áåçûìÿííûé_ãðàäèåíò_70-3);}.cls-22{fill:#fe9083;}.cls-23{fill:url(#Áåçûìÿííûé_ãðàäèåíò_354);}.cls-24{fill:url(#Áåçûìÿííûé_ãðàäèåíò_70-4);}.cls-25{fill:url(#Áåçûìÿííûé_ãðàäèåíò_26-3);}.cls-26{fill:url(#Áåçûìÿííûé_ãðàäèåíò_70-5);}.cls-27{fill:url(#Áåçûìÿííûé_ãðàäèåíò_178);}.cls-28{fill:url(#Áåçûìÿííûé_ãðàäèåíò_55);}.cls-29{fill:#cb4d7a;}.cls-30{fill:#ee8183;}.cls-31{fill:url(#Áåçûìÿííûé_ãðàäèåíò_71);}.cls-32,.cls-37,.cls-68,.cls-79,.cls-82,.cls-83,.cls-94,.cls-96{opacity:0.6;}.cls-32{fill:url(#Áåçûìÿííûé_ãðàäèåíò_48);}.cls-33{fill:url(#Áåçûìÿííûé_ãðàäèåíò_71-2);}.cls-34{fill:#e28183;}.cls-35,.cls-40{opacity:0.91;}.cls-35{fill:url(#Áåçûìÿííûé_ãðàäèåíò_73);}.cls-36{fill:url(#Áåçûìÿííûé_ãðàäèåíò_71-3);}.cls-37{fill:url(#Áåçûìÿííûé_ãðàäèåíò_48-2);}.cls-38{fill:url(#Áåçûìÿííûé_ãðàäèåíò_64);}.cls-39{fill:url(#Áåçûìÿííûé_ãðàäèåíò_64-2);}.cls-40{fill:url(#Áåçûìÿííûé_ãðàäèåíò_73-2);}.cls-41{fill:url(#Áåçûìÿííûé_ãðàäèåíò_70-6);}.cls-42{fill:url(#Áåçûìÿííûé_ãðàäèåíò_70-7);}.cls-43{fill:url(#Áåçûìÿííûé_ãðàäèåíò_4);}.cls-44{fill:url(#Áåçûìÿííûé_ãðàäèåíò_4-2);}.cls-45{fill:url(#Áåçûìÿííûé_ãðàäèåíò_4-3);}.cls-46{fill:url(#Áåçûìÿííûé_ãðàäèåíò_4-4);}.cls-47{fill:url(#Áåçûìÿííûé_ãðàäèåíò_4-5);}.cls-48{fill:url(#Áåçûìÿííûé_ãðàäèåíò_4-6);}.cls-49{fill:url(#Áåçûìÿííûé_ãðàäèåíò_4-7);}.cls-50{fill:url(#Áåçûìÿííûé_ãðàäèåíò_70-8);}.cls-51{fill:url(#Áåçûìÿííûé_ãðàäèåíò_70-9);}.cls-100,.cls-52,.cls-60,.cls-97,.cls-98,.cls-99{opacity:0.3;}.cls-52{fill:url(#Áåçûìÿííûé_ãðàäèåíò_70-10);}.cls-53{fill:url(#Áåçûìÿííûé_ãðàäèåíò_4-8);}.cls-54{fill:url(#Áåçûìÿííûé_ãðàäèåíò_70-11);}.cls-55{fill:url(#Áåçûìÿííûé_ãðàäèåíò_4-9);}.cls-56{fill:url(#Áåçûìÿííûé_ãðàäèåíò_4-10);}.cls-57{fill:url(#Áåçûìÿííûé_ãðàäèåíò_25);}.cls-58{fill:#e0e0e0;}.cls-59{fill:url(#Áåçûìÿííûé_ãðàäèåíò_70-12);}.cls-60{fill:url(#Áåçûìÿííûé_ãðàäèåíò_70-13);}.cls-61{fill:url(#Áåçûìÿííûé_ãðàäèåíò_70-14);}.cls-62{fill:url(#Áåçûìÿííûé_ãðàäèåíò_70-15);}.cls-63{fill:url(#Áåçûìÿííûé_ãðàäèåíò_70-16);}.cls-64{fill:#7a4ac0;}.cls-65{fill:url(#Áåçûìÿííûé_ãðàäèåíò_71-4);}.cls-66{fill:url(#Áåçûìÿííûé_ãðàäèåíò_71-5);}.cls-67{fill:url(#Áåçûìÿííûé_ãðàäèåíò_387);}.cls-68{fill:url(#Áåçûìÿííûé_ãðàäèåíò_48-3);}.cls-69{fill:#38368e;}.cls-70{fill:url(#Áåçûìÿííûé_ãðàäèåíò_59);}.cls-71{fill:url(#Áåçûìÿííûé_ãðàäèåíò_184);}.cls-72{fill:#ffebed;}.cls-73{fill:#7f9ec9;}.cls-74{fill:#131163;}.cls-75{fill:#c6659c;}.cls-76{fill:#cb5f7d;}.cls-77{fill:#9f4a8b;}.cls-78{fill:#ffbcaf;}.cls-79{fill:url(#Áåçûìÿííûé_ãðàäèåíò_48-4);}.cls-80{fill:url(#Áåçûìÿííûé_ãðàäèåíò_292);}.cls-81{fill:#d2726c;}.cls-82{fill:url(#Áåçûìÿííûé_ãðàäèåíò_35);}.cls-83{fill:url(#Áåçûìÿííûé_ãðàäèåíò_52);}.cls-84{fill:url(#Áåçûìÿííûé_ãðàäèåíò_397);}.cls-85{fill:url(#Áåçûìÿííûé_ãðàäèåíò_141);}.cls-86{fill:url(#Áåçûìÿííûé_ãðàäèåíò_141-2);}.cls-87{fill:url(#Áåçûìÿííûé_ãðàäèåíò_141-3);}.cls-88,.cls-89{opacity:0.8;}.cls-88{fill:url(#Áåçûìÿííûé_ãðàäèåíò_285);}.cls-89{fill:url(#Áåçûìÿííûé_ãðàäèåíò_285-2);}.cls-90{fill:#34c7ff;}.cls-91{fill:url(#Áåçûìÿííûé_ãðàäèåíò_141-4);}.cls-92{fill:url(#Áåçûìÿííûé_ãðàäèåíò_141-5);}.cls-93{fill:url(#Áåçûìÿííûé_ãðàäèåíò_141-6);}.cls-94{fill:#36d1f7;}.cls-95{fill:#744ca2;}.cls-96{fill:url(#Áåçûìÿííûé_ãðàäèåíò_89);}.cls-97{fill:url(#Áåçûìÿííûé_ãðàäèåíò_85);}.cls-98{fill:url(#Áåçûìÿííûé_ãðàäèåíò_85-2);}.cls-99{fill:url(#Áåçûìÿííûé_ãðàäèåíò_85-3);}.cls-100{fill:url(#Áåçûìÿííûé_ãðàäèåíò_85-4);}.cls-101{fill:#d1d4fb;}.cls-102,.cls-121{mix-blend-mode:soft-light;}.cls-103{fill:#e0ffff;}.cls-104{fill:url(#Áåçûìÿííûé_ãðàäèåíò_65);}.cls-105{fill:url(#Áåçûìÿííûé_ãðàäèåíò_14);}.cls-106{opacity:0.81;fill:url(#Áåçûìÿííûé_ãðàäèåíò_115);}.cls-107{fill:#473da2;}.cls-108{fill:url(#Áåçûìÿííûé_ãðàäèåíò_302);}.cls-109{fill:url(#Áåçûìÿííûé_ãðàäèåíò_302-2);}.cls-110{fill:url(#Áåçûìÿííûé_ãðàäèåíò_322);}.cls-111{fill:url(#Áåçûìÿííûé_ãðàäèåíò_322-2);}.cls-112{fill:url(#Áåçûìÿííûé_ãðàäèåíò_25-2);}.cls-113{fill:url(#Áåçûìÿííûé_ãðàäèåíò_25-3);}.cls-114,.cls-116{opacity:0.73;}.cls-114{fill:url(#Áåçûìÿííûé_ãðàäèåíò_97);}.cls-115{fill:#953da2;}.cls-116{fill:url(#Áåçûìÿííûé_ãðàäèåíò_97-2);}.cls-117,.cls-118,.cls-119,.cls-120,.cls-121,.cls-125,.cls-126,.cls-127,.cls-128{fill-rule:evenodd;}.cls-117{fill:url(#Áåçûìÿííûé_ãðàäèåíò_206);}.cls-118{fill:url(#Áåçûìÿííûé_ãðàäèåíò_206-2);}.cls-119{fill:url(#Áåçûìÿííûé_ãðàäèåíò_107);}.cls-120{fill:#601734;}.cls-121{fill:#b3d9ff;}.cls-122{fill:#ff1d9c;}.cls-123{fill:#6877ff;}.cls-124{fill:#4f31e0;}.cls-125{fill:url(#Áåçûìÿííûé_ãðàäèåíò_107-2);}.cls-126{fill:url(#Áåçûìÿííûé_ãðàäèåíò_206-3);}.cls-127{fill:url(#Áåçûìÿííûé_ãðàäèåíò_107-3);}.cls-128{fill:url(#Áåçûìÿííûé_ãðàäèåíò_206-4);}</style><clipPath id="clip-path"><rect class="cls-1" x="4.12" width="600" height="400"/></clipPath><linearGradient id="Áåçûìÿííûé_ãðàäèåíò_29" x1="143.57" y1="276.95" x2="143.57" y2="205.76" gradientTransform="matrix(0.91, -0.42, 0.42, 0.91, -75.05, 53.74)" gradientUnits="userSpaceOnUse"><stop offset="0" stop-color="#dbccff"/><stop offset="1" stop-color="#d1bbff"/></linearGradient><linearGradient id="Áåçûìÿííûé_ãðàäèåíò_28" x1="143.57" y1="279.72" x2="143.57" y2="208.53" gradientTransform="matrix(0.91, -0.42, 0.42, 0.91, -75.05, 53.74)" gradientUnits="userSpaceOnUse"><stop offset="0" stop-color="#b5a6e7"/><stop offset="1" stop-color="#7760bf"/></linearGradient><linearGradient id="Áåçûìÿííûé_ãðàäèåíò_28-2" x1="143.57" y1="262.02" x2="143.57" y2="232.02" xlink:href="#Áåçûìÿííûé_ãðàäèåíò_28"/><linearGradient id="Áåçûìÿííûé_ãðàäèåíò_27" x1="139.31" y1="232.62" x2="147.83" y2="232.62" gradientTransform="matrix(0.91, -0.42, 0.42, 0.91, -75.05, 53.74)" gradientUnits="userSpaceOnUse"><stop offset="0" stop-color="#8b8be0"/><stop offset="1" stop-color="#a177b7"/></linearGradient><linearGradient id="Áåçûìÿííûé_ãðàäèåíò_94" x1="143.57" y1="234.6" x2="143.57" y2="229.44" gradientTransform="matrix(0.91, -0.42, 0.42, 0.91, -75.05, 53.74)" gradientUnits="userSpaceOnUse"><stop offset="0" stop-color="#fff"/><stop offset="1" stop-color="#a177b7"/></linearGradient><linearGradient id="Áåçûìÿííûé_ãðàäèåíò_95" x1="148.07" y1="265.09" x2="148.07" y2="232.01" gradientTransform="matrix(0.91, -0.42, 0.42, 0.91, -75.05, 53.74)" gradientUnits="userSpaceOnUse"><stop offset="0"/><stop offset="1" stop-color="#fff"/></linearGradient><linearGradient id="Áåçûìÿííûé_ãðàäèåíò_74" x1="284.42" y1="400" x2="284.42" y2="310.79" gradientUnits="userSpaceOnUse"><stop offset="0" stop-color="#6456c0"/><stop offset="1" stop-color="#5f2c95"/></linearGradient><radialGradient id="Áåçûìÿííûé_ãðàäèåíò_83" cx="238.56" cy="368.11" r="27.03" gradientTransform="matrix(0, 0.66, -1.71, 0, 871.72, 209.71)" gradientUnits="userSpaceOnUse"><stop offset="0" stop-color="#4b474b"/><stop offset="1"/></radialGradient><radialGradient id="Áåçûìÿííûé_ãðàäèåíò_83-2" cx="357.32" cy="353.46" r="27.03" gradientTransform="matrix(0.66, 0, 0, 1.71, 87.22, -238.15)" xlink:href="#Áåçûìÿííûé_ãðàäèåíò_83"/><linearGradient id="Áåçûìÿííûé_ãðàäèåíò_26" x1="255.55" y1="368.68" x2="278.95" y2="368.68" gradientUnits="userSpaceOnUse"><stop offset="0" stop-color="#9e8cef"/><stop offset="1" stop-color="#caafee"/></linearGradient><linearGradient id="Áåçûìÿííûé_ãðàäèåíò_26-2" x1="337.4" y1="368.68" x2="360.8" y2="368.68" gradientTransform="matrix(-1, 0, 0, 1, 647.63, 0)" xlink:href="#Áåçûìÿííûé_ãðàäèåíò_26"/><linearGradient id="Áåçûìÿííûé_ãðàäèåíò_70" x1="281.28" y1="400" x2="281.28" y2="310.79" gradientUnits="userSpaceOnUse"><stop offset="0" stop-color="#ccf"/><stop offset="1" stop-color="#755cbb"/></linearGradient><linearGradient id="Áåçûìÿííûé_ãðàäèåíò_70-2" x1="291.67" y1="355.4" x2="291.67" y2="331.06" xlink:href="#Áåçûìÿííûé_ãðàäèåíò_70"/><linearGradient id="Áåçûìÿííûé_ãðàäèåíò_70-3" x1="263.49" y1="346.45" x2="263.49" y2="322.61" xlink:href="#Áåçûìÿííûé_ãðàäèåíò_70"/><linearGradient id="Áåçûìÿííûé_ãðàäèåíò_354" x1="287.66" y1="176.45" x2="287.66" y2="140.84" gradientUnits="userSpaceOnUse"><stop offset="0" stop-color="#d5cdf8"/><stop offset="1" stop-color="#f3edfb"/></linearGradient><linearGradient id="Áåçûìÿííûé_ãðàäèåíò_70-4" x1="269.33" y1="158.61" x2="306" y2="158.61" xlink:href="#Áåçûìÿííûé_ãðàäèåíò_70"/><linearGradient id="Áåçûìÿííûé_ãðàäèåíò_26-3" x1="277.64" y1="319.11" x2="277.64" y2="139.67" xlink:href="#Áåçûìÿííûé_ãðàäèåíò_26"/><linearGradient id="Áåçûìÿííûé_ãðàäèåíò_70-5" x1="202.71" y1="206.91" x2="246.41" y2="206.91" xlink:href="#Áåçûìÿííûé_ãðàäèåíò_70"/><linearGradient id="Áåçûìÿííûé_ãðàäèåíò_178" x1="201.36" y1="257.17" x2="201.36" y2="173.26" gradientUnits="userSpaceOnUse"><stop offset="0" stop-color="#9e8cef"/><stop offset="1" stop-color="#dac7f3"/></linearGradient><linearGradient id="Áåçûìÿííûé_ãðàäèåíò_55" x1="345.65" y1="232.99" x2="401.96" y2="232.99" gradientUnits="userSpaceOnUse"><stop offset="0" stop-color="#a999f1"/><stop offset="1" stop-color="#dac7f3"/></linearGradient><linearGradient id="Áåçûìÿííûé_ãðàäèåíò_71" x1="183.05" y1="161.82" x2="183.05" y2="139.69" gradientUnits="userSpaceOnUse"><stop offset="0.02" stop-color="#ffc2a9"/><stop offset="1" stop-color="#ff9595"/></linearGradient><linearGradient id="Áåçûìÿííûé_ãðàäèåíò_48" x1="196.98" y1="161.29" x2="196.98" y2="124.67" gradientUnits="userSpaceOnUse"><stop offset="0" stop-color="#ffeadb"/><stop offset="0.99" stop-color="#c27cb6"/></linearGradient><linearGradient id="Áåçûìÿííûé_ãðàäèåíò_71-2" x1="195.79" y1="186.21" x2="195.79" y2="129.75" xlink:href="#Áåçûìÿííûé_ãðàäèåíò_71"/><linearGradient id="Áåçûìÿííûé_ãðàäèåíò_73" x1="185.69" y1="177.4" x2="203.44" y2="177.4" gradientUnits="userSpaceOnUse"><stop offset="0.02" stop-color="#d1a1d6"/><stop offset="0.99" stop-color="#bd89c4"/></linearGradient><linearGradient id="Áåçûìÿííûé_ãðàäèåíò_71-3" x1="403.12" y1="220.6" x2="403.12" y2="145.1" xlink:href="#Áåçûìÿííûé_ãðàäèåíò_71"/><linearGradient id="Áåçûìÿííûé_ãðàäèåíò_48-2" x1="412.04" y1="196.41" x2="412.04" y2="158.9" xlink:href="#Áåçûìÿííûé_ãðàäèåíò_48"/><linearGradient id="Áåçûìÿííûé_ãðàäèåíò_64" x1="419.44" y1="183.46" x2="419.44" y2="166.65" gradientUnits="userSpaceOnUse"><stop offset="0" stop-color="#ffb0b0"/><stop offset="0.98" stop-color="#ffc2a9"/></linearGradient><linearGradient id="Áåçûìÿííûé_ãðàäèåíò_64-2" x1="429.19" y1="186.05" x2="429.19" y2="176.83" xlink:href="#Áåçûìÿííûé_ãðàäèåíò_64"/><linearGradient id="Áåçûìÿííûé_ãðàäèåíò_73-2" x1="389.75" y1="204.43" x2="406.9" y2="204.43" xlink:href="#Áåçûìÿííûé_ãðàäèåíò_73"/><linearGradient id="Áåçûìÿííûé_ãðàäèåíò_70-6" x1="365.89" y1="263.62" x2="365.89" y2="179.11" xlink:href="#Áåçûìÿííûé_ãðàäèåíò_70"/><linearGradient id="Áåçûìÿííûé_ãðàäèåíò_70-7" x1="179.81" y1="246.59" x2="321.16" y2="246.59" xlink:href="#Áåçûìÿííûé_ãðàäèåíò_70"/><linearGradient id="Áåçûìÿííûé_ãðàäèåíò_4" x1="304.43" y1="222.94" x2="331.45" y2="222.94" gradientUnits="userSpaceOnUse"><stop offset="0" stop-color="#ccedff"/><stop offset="1" stop-color="#755cbb"/></linearGradient><linearGradient id="Áåçûìÿííûé_ãðàäèåíò_4-2" x1="279.92" y1="270.36" x2="319.63" y2="270.36" xlink:href="#Áåçûìÿííûé_ãðàäèåíò_4"/><linearGradient id="Áåçûìÿííûé_ãðàäèåíò_4-3" x1="281.76" y1="288.31" x2="324.18" y2="288.31" xlink:href="#Áåçûìÿííûé_ãðàäèåíò_4"/><linearGradient id="Áåçûìÿííûé_ãðàäèåíò_4-4" x1="245.25" y1="243.86" x2="245.25" y2="196.25" xlink:href="#Áåçûìÿííûé_ãðàäèåíò_4"/><linearGradient id="Áåçûìÿííûé_ãðàäèåíò_4-5" x1="249.09" y1="247.86" x2="249.09" y2="211.77" xlink:href="#Áåçûìÿííûé_ãðàäèåíò_4"/><linearGradient id="Áåçûìÿííûé_ãðàäèåíò_4-6" x1="192.05" y1="201.73" x2="192.05" y2="174.46" xlink:href="#Áåçûìÿííûé_ãðàäèåíò_4"/><linearGradient id="Áåçûìÿííûé_ãðàäèåíò_4-7" x1="214.11" y1="177.72" x2="225.1" y2="177.72" xlink:href="#Áåçûìÿííûé_ãðàäèåíò_4"/><linearGradient id="Áåçûìÿííûé_ãðàäèåíò_70-8" x1="333.57" y1="243.86" x2="333.57" y2="193.32" xlink:href="#Áåçûìÿííûé_ãðàäèåíò_70"/><linearGradient id="Áåçûìÿííûé_ãðàäèåíò_70-9" x1="390.39" y1="232.99" x2="390.39" y2="206.58" xlink:href="#Áåçûìÿííûé_ãðàäèåíò_70"/><linearGradient id="Áåçûìÿííûé_ãðàäèåíò_70-10" x1="360.44" y1="231.81" x2="360.44" y2="211.62" xlink:href="#Áåçûìÿííûé_ãðàäèåíò_70"/><linearGradient id="Áåçûìÿííûé_ãðàäèåíò_4-8" x1="186.34" y1="203.47" x2="186.34" y2="195.97" xlink:href="#Áåçûìÿííûé_ãðàäèåíò_4"/><linearGradient id="Áåçûìÿííûé_ãðàäèåíò_70-11" x1="206.37" y1="226.33" x2="206.37" y2="185.35" xlink:href="#Áåçûìÿííûé_ãðàäèåíò_70"/><linearGradient id="Áåçûìÿííûé_ãðàäèåíò_4-9" x1="311.79" y1="197.48" x2="311.79" y2="166.65" xlink:href="#Áåçûìÿííûé_ãðàäèåíò_4"/><linearGradient id="Áåçûìÿííûé_ãðàäèåíò_4-10" x1="271.39" y1="193.32" x2="271.39" y2="150.76" xlink:href="#Áåçûìÿííûé_ãðàäèåíò_4"/><linearGradient id="Áåçûìÿííûé_ãðàäèåíò_25" x1="257.02" y1="201.1" x2="328.11" y2="201.1" gradientUnits="userSpaceOnUse"><stop offset="0" stop-color="#8642a0"/><stop offset="1" stop-color="#6456c0"/></linearGradient><linearGradient id="Áåçûìÿííûé_ãðàäèåíò_70-12" x1="263.15" y1="160.08" x2="309.41" y2="160.08" xlink:href="#Áåçûìÿííûé_ãðàäèåíò_70"/><linearGradient id="Áåçûìÿííûé_ãðàäèåíò_70-13" x1="382.07" y1="229.98" x2="382.07" y2="203.21" xlink:href="#Áåçûìÿííûé_ãðàäèåíò_70"/><linearGradient id="Áåçûìÿííûé_ãðàäèåíò_70-14" x1="344.23" y1="260.18" x2="344.23" y2="179.11" xlink:href="#Áåçûìÿííûé_ãðàäèåíò_70"/><linearGradient id="Áåçûìÿííûé_ãðàäèåíò_70-15" x1="257.07" y1="298.26" x2="257.07" y2="275.02" xlink:href="#Áåçûìÿííûé_ãðàäèåíò_70"/><linearGradient id="Áåçûìÿííûé_ãðàäèåíò_70-16" x1="302.22" y1="291.88" x2="302.22" y2="280.59" xlink:href="#Áåçûìÿííûé_ãðàäèåíò_70"/><linearGradient id="Áåçûìÿííûé_ãðàäèåíò_71-4" x1="301.72" y1="146.81" x2="301.72" y2="69.6" xlink:href="#Áåçûìÿííûé_ãðàäèåíò_71"/><linearGradient id="Áåçûìÿííûé_ãðàäèåíò_71-5" x1="272.94" y1="115.66" x2="272.94" y2="92.89" xlink:href="#Áåçûìÿííûé_ãðàäèåíò_71"/><linearGradient id="Áåçûìÿííûé_ãðàäèåíò_387" x1="312.45" y1="124.27" x2="313.41" y2="119.3" gradientUnits="userSpaceOnUse"><stop offset="0" stop-color="#e1616a"/><stop offset="1" stop-color="#ff8883"/></linearGradient><linearGradient id="Áåçûìÿííûé_ãðàäèåíò_48-3" x1="303.84" y1="120.46" x2="303.84" y2="70.73" xlink:href="#Áåçûìÿííûé_ãðàäèåíò_48"/><linearGradient id="Áåçûìÿííûé_ãðàäèåíò_59" x1="301.41" y1="100.09" x2="301.41" y2="90.24" gradientUnits="userSpaceOnUse"><stop offset="0" stop-color="#cf6074"/><stop offset="1" stop-color="#f37270"/></linearGradient><linearGradient id="Áåçûìÿííûé_ãðàäèåíò_184" x1="321.06" y1="103.22" x2="321.06" y2="94.65" gradientUnits="userSpaceOnUse"><stop offset="0" stop-color="#cf6074"/><stop offset="1" stop-color="#ff817f"/></linearGradient><linearGradient id="Áåçûìÿííûé_ãðàäèåíò_48-4" x1="321.87" y1="108.21" x2="321.87" y2="88.92" xlink:href="#Áåçûìÿííûé_ãðàäèåíò_48"/><linearGradient id="Áåçûìÿííûé_ãðàäèåíò_292" x1="302.76" y1="147.78" x2="302.76" y2="54.15" gradientUnits="userSpaceOnUse"><stop offset="0" stop-color="#2e33a0"/><stop offset="1" stop-color="#0665a5"/></linearGradient><linearGradient id="Áåçûìÿííûé_ãðàäèåíò_35" x1="327.35" y1="88.82" x2="327.35" y2="67.22" gradientUnits="userSpaceOnUse"><stop offset="0" stop-color="#ffeadb"/><stop offset="0.99" stop-color="#8860c7"/></linearGradient><linearGradient id="Áåçûìÿííûé_ãðàäèåíò_52" x1="297.91" y1="147.78" x2="297.91" y2="54.15" gradientUnits="userSpaceOnUse"><stop offset="0" stop-color="#ccc2db"/><stop offset="0.99" stop-color="#8860c7"/></linearGradient><linearGradient id="Áåçûìÿííûé_ãðàäèåíò_397" x1="304.19" y1="147.76" x2="304.19" y2="143.74" gradientUnits="userSpaceOnUse"><stop offset="0" stop-color="#776d7e"/><stop offset="1" stop-color="#9d68c2"/></linearGradient><linearGradient id="Áåçûìÿííûé_ãðàäèåíò_141" x1="316" y1="60.87" x2="316" y2="57.88" gradientUnits="userSpaceOnUse"><stop offset="0" stop-color="#1f77d1"/><stop offset="1" stop-color="#0686c9"/></linearGradient><linearGradient id="Áåçûìÿííûé_ãðàäèåíò_141-2" x1="296.96" y1="70.71" x2="296.96" y2="61.87" xlink:href="#Áåçûìÿííûé_ãðàäèåíò_141"/><linearGradient id="Áåçûìÿííûé_ãðàäèåíò_141-3" x1="328.98" y1="75.19" x2="328.98" y2="67.22" xlink:href="#Áåçûìÿííûé_ãðàäèåíò_141"/><linearGradient id="Áåçûìÿííûé_ãðàäèåíò_285" x1="276.25" y1="110.26" x2="266.06" y2="97.77" gradientUnits="userSpaceOnUse"><stop offset="0" stop-color="#ffeadb"/><stop offset="0.99" stop-color="#b060f4"/></linearGradient><linearGradient id="Áåçûìÿííûé_ãðàäèåíò_285-2" x1="277.32" y1="108.65" x2="272.3" y2="102.51" xlink:href="#Áåçûìÿííûé_ãðàäèåíò_285"/><linearGradient id="Áåçûìÿííûé_ãðàäèåíò_141-4" x1="296.37" y1="71.5" x2="313.63" y2="71.5" xlink:href="#Áåçûìÿííûé_ãðàäèåíò_141"/><linearGradient id="Áåçûìÿííûé_ãðàäèåíò_141-5" x1="320.72" y1="123.14" x2="325.96" y2="123.14" xlink:href="#Áåçûìÿííûé_ãðàäèåíò_141"/><linearGradient id="Áåçûìÿííûé_ãðàäèåíò_141-6" x1="314.25" y1="119.24" x2="319.9" y2="119.24" xlink:href="#Áåçûìÿííûé_ãðàäèåíò_141"/><linearGradient id="Áåçûìÿííûé_ãðàäèåíò_89" x1="355.92" y1="132.95" x2="532.98" y2="132.95" gradientUnits="userSpaceOnUse"><stop offset="0" stop-color="#9d68c2"/><stop offset="1" stop-color="#aec2ff"/></linearGradient><linearGradient id="Áåçûìÿííûé_ãðàäèåíò_85" x1="391.94" y1="199.82" x2="391.94" y2="146.42" gradientUnits="userSpaceOnUse"><stop offset="0" stop-color="#ccedff"/><stop offset="1" stop-color="#9d68c2"/></linearGradient><linearGradient id="Áåçûìÿííûé_ãðàäèåíò_85-2" x1="483" y1="173.78" x2="483" y2="150.26" xlink:href="#Áåçûìÿííûé_ãðàäèåíò_85"/><linearGradient id="Áåçûìÿííûé_ãðàäèåíò_85-3" x1="510.75" y1="173.78" x2="510.75" y2="150.26" xlink:href="#Áåçûìÿííûé_ãðàäèåíò_85"/><linearGradient id="Áåçûìÿííûé_ãðàäèåíò_85-4" x1="454.78" y1="173.78" x2="454.78" y2="150.26" xlink:href="#Áåçûìÿííûé_ãðàäèåíò_85"/><linearGradient id="Áåçûìÿííûé_ãðàäèåíò_65" x1="201.79" y1="115.99" x2="201.79" y2="91.37" gradientUnits="userSpaceOnUse"><stop offset="0" stop-color="#d93de3"/><stop offset="1" stop-color="#ff6dba"/></linearGradient><linearGradient id="Áåçûìÿííûé_ãðàäèåíò_14" x1="216.84" y1="115.99" x2="216.84" y2="91.37" gradientUnits="userSpaceOnUse"><stop offset="0" stop-color="#a242ea"/><stop offset="1" stop-color="#fe117e"/></linearGradient><linearGradient id="Áåçûìÿííûé_ãðàäèåíò_115" x1="197.52" y1="375.37" x2="210.83" y2="269.36" gradientUnits="userSpaceOnUse"><stop offset="0" stop-color="#067eff"/><stop offset="1" stop-color="#3e37a0"/></linearGradient><linearGradient id="Áåçûìÿííûé_ãðàäèåíò_302" x1="508.37" y1="113.31" x2="508.37" y2="104.37" gradientUnits="userSpaceOnUse"><stop offset="0" stop-color="#459fff"/><stop offset="1" stop-color="#a96dff"/></linearGradient><linearGradient id="Áåçûìÿííûé_ãðàäèåíò_302-2" x1="88.38" y1="218.04" x2="88.38" y2="206.92" xlink:href="#Áåçûìÿííûé_ãðàäèåíò_302"/><linearGradient id="Áåçûìÿííûé_ãðàäèåíò_322" x1="521.5" y1="113.31" x2="521.5" y2="104.37" gradientUnits="userSpaceOnUse"><stop offset="0" stop-color="#b31a8f"/><stop offset="1" stop-color="#fe117e"/></linearGradient><linearGradient id="Áåçûìÿííûé_ãðàäèåíò_322-2" x1="233.33" y1="142.73" x2="233.33" y2="136.41" xlink:href="#Áåçûìÿííûé_ãðàäèåíò_322"/><linearGradient id="Áåçûìÿííûé_ãðàäèåíò_25-2" x1="444.98" y1="282.16" x2="444.98" y2="275.84" xlink:href="#Áåçûìÿííûé_ãðàäèåíò_25"/><linearGradient id="Áåçûìÿííûé_ãðàäèåíò_25-3" x1="116.46" y1="313.33" x2="116.46" y2="307.68" xlink:href="#Áåçûìÿííûé_ãðàäèåíò_25"/><linearGradient id="Áåçûìÿííûé_ãðàäèåíò_97" x1="140.17" y1="282.77" x2="140.17" y2="236.11" gradientUnits="userSpaceOnUse"><stop offset="0" stop-color="#d906e3"/><stop offset="1" stop-color="#ff6df9"/></linearGradient><linearGradient id="Áåçûìÿííûé_ãðàäèåíò_97-2" x1="462.36" y1="348.82" x2="462.36" y2="290.45" xlink:href="#Áåçûìÿííûé_ãðàäèåíò_97"/><linearGradient id="Áåçûìÿííûé_ãðàäèåíò_206" x1="408.3" y1="274.13" x2="403.33" y2="231.44" gradientTransform="matrix(0.97, 0.26, -0.26, 0.97, 63.63, -54.68)" gradientUnits="userSpaceOnUse"><stop offset="0" stop-color="#1852a0"/><stop offset="1" stop-color="#067ed3"/></linearGradient><linearGradient id="Áåçûìÿííûé_ãðàäèåíò_206-2" x1="403.48" y1="274.29" x2="403.48" y2="230.55" xlink:href="#Áåçûìÿííûé_ãðàäèåíò_206"/><linearGradient id="Áåçûìÿííûé_ãðàäèåíò_107" x1="365.83" y1="288.41" x2="362.61" y2="260.79" gradientTransform="matrix(0.94, 0.33, -0.52, 1.49, 181.34, -235.91)" gradientUnits="userSpaceOnUse"><stop offset="0" stop-color="#188dc1"/><stop offset="1" stop-color="#06bfe7"/></linearGradient><linearGradient id="Áåçûìÿííûé_ãðàäèåíò_107-2" x1="416.47" y1="88.1" x2="427.81" y2="46.01" gradientTransform="matrix(1, 0, 0, 1, 0, 0)" xlink:href="#Áåçûìÿííûé_ãðàäèåíò_107"/><linearGradient id="Áåçûìÿííûé_ãðàäèåíò_206-3" x1="397" y1="83.24" x2="405.45" y2="51.86" gradientTransform="matrix(1, 0, 0, 1, 0, 0)" xlink:href="#Áåçûìÿííûé_ãðàäèåíò_206"/><linearGradient id="Áåçûìÿííûé_ãðàäèåíò_107-3" x1="117.8" y1="160.57" x2="125.53" y2="131.88" gradientTransform="matrix(-1, 0, 0, 1, 206.66, 0)" xlink:href="#Áåçûìÿííûé_ãðàäèåíò_107"/><linearGradient id="Áåçûìÿííûé_ãðàäèåíò_206-4" x1="104.52" y1="157.26" x2="110.28" y2="135.87" gradientTransform="matrix(-1, 0, 0, 1, 206.66, 0)" xlink:href="#Áåçûìÿííûé_ãðàäèåíò_206"/></defs><g class="cls-2"><g id="illustration"><g class="cls-3"><path class="cls-4" d="M152.33,196.1q0-.37.36-.36l6.71.2a4.79,4.79,0,0,1,1.68.31,2.74,2.74,0,0,1,1.11.74,2.84,2.84,0,0,1,.6,1.14,5.63,5.63,0,0,1,.15,1.47l-.06,1.85a5.07,5.07,0,0,1-.24,1.46A2.73,2.73,0,0,1,162,204a3,3,0,0,1-1.15.68,5.12,5.12,0,0,1-1.7.2l-3.62-.11-.74-2.12h-.1l-.07,2.09-2.53-.08Zm2.35,6.33,4.28.13a1.38,1.38,0,0,0,1-.29,1.6,1.6,0,0,0,.35-1.12l0-1.5a1.59,1.59,0,0,0-.27-1.15,1.51,1.51,0,0,0-1-.33l-4.11-.12a.13.13,0,0,0-.13,0,.16.16,0,0,0-.06.12Z"/><path class="cls-4" d="M166.57,199.93h-.09l-.08,2.68a.16.16,0,0,0,.17.18l7.54.23-.07,2.32-9.89-.3a.32.32,0,0,1-.34-.38l.24-8.21a.33.33,0,0,1,.37-.36l9.61.3c.24,0,.36.13.36.38l-.07,2.32-2.38.8h-.1l0-1.2c0-.09,0-.13-.12-.13l-5.07-.16a.14.14,0,0,0-.13,0,.56.56,0,0,0,0,.12l0,1.12,4.18.12-.06,1.82-3.5-.1Z"/><path class="cls-4" d="M183.33,199.77h-.09l0-1c0-.1,0-.15-.14-.15l-4.72-.14a.42.42,0,0,0-.36.1.46.46,0,0,0-.1.31v.22c0,.18,0,.29.08.34a.66.66,0,0,0,.32.12l5.53.94a3.63,3.63,0,0,1,.89.26,1.65,1.65,0,0,1,.59.42,1.45,1.45,0,0,1,.32.63,3.87,3.87,0,0,1,.07.88l0,.71a3.11,3.11,0,0,1-.17,1,1.68,1.68,0,0,1-.46.7,2,2,0,0,1-.83.41,4.57,4.57,0,0,1-1.24.11l-8-.24.07-2.32,7.14.21a.52.52,0,0,0,.42-.1.61.61,0,0,0,.12-.41v-.24a.54.54,0,0,0-.07-.33.5.5,0,0,0-.31-.13l-5.34-.84a4.06,4.06,0,0,1-.92-.25,1.72,1.72,0,0,1-.62-.41,1.46,1.46,0,0,1-.34-.61,3.11,3.11,0,0,1-.08-.85l0-.63a2.06,2.06,0,0,1,.56-1.49,2.35,2.35,0,0,1,1.73-.48l7.95.24c.26,0,.38.14.37.41l0,1.84Z"/><path class="cls-4" d="M186.69,205.72l.27-8.94,2.54.08-.28,8.94Z"/><path class="cls-4" d="M198.62,202.25c0-.13,0-.27,0-.42s0-.26,0-.37v-.11l2.51.07-.14,4.39c0,.23-.11.34-.31.34l-6.73-.21a5.06,5.06,0,0,1-1.69-.3,2.8,2.8,0,0,1-1.11-.75,2.59,2.59,0,0,1-.59-1.14,5.22,5.22,0,0,1-.16-1.47l.06-1.84a5.51,5.51,0,0,1,.24-1.47,2.73,2.73,0,0,1,.66-1.09,2.8,2.8,0,0,1,1.15-.68,4.93,4.93,0,0,1,1.71-.2l6.69.2c.24,0,.35.13.35.38l-.06,1.93-2.38.79h-.09l0-.86c0-.08,0-.12-.1-.12l-4.28-.13a2.32,2.32,0,0,0-.62,0,.85.85,0,0,0-.42.22,1.06,1.06,0,0,0-.25.43,3.12,3.12,0,0,0-.09.68l0,1.58a1.65,1.65,0,0,0,.27,1.14,1.42,1.42,0,0,0,1,.35l4.24.12c.09,0,.13,0,.13-.14Z"/><path class="cls-4" d="M206.44,197.37a.68.68,0,0,1,.39.1.75.75,0,0,1,.21.27l3.2,6.53a.27.27,0,0,0,.23.16h.13a.17.17,0,0,0,.2-.19l.21-6.73,2.29.07-.26,8.59a.3.3,0,0,1-.35.34l-3.64-.11a.74.74,0,0,1-.38-.08.7.7,0,0,1-.23-.29l-3.32-6.52a.26.26,0,0,0-.23-.16h-.12a.18.18,0,0,0-.21.19l-.2,6.72-2.3-.07.26-8.58c0-.24.13-.36.36-.35Z"/><circle class="cls-5" cx="273.17" cy="195.53" r="155.02" transform="translate(-58.25 250.43) rotate(-45)"/><path class="cls-6" d="M159.22,185.61a23.77,23.77,0,0,0-10.55-9.26l-2.35,1.09,5.29,9.61a10.33,10.33,0,0,1-3.24,5.72v0a10.31,10.31,0,0,1-6.46-1.18l-4-10.23-2.35,1.1a23.75,23.75,0,0,0,.33,14s1,2.31,1.18,2.52c.93,1.08,3.36,2.34,8,2.05L161.35,232a8.47,8.47,0,1,0,8.76-4.09L156.8,195.62c3.17-3.34,3.84-6,3.6-7.49C160.34,187.8,159.22,185.61,159.22,185.61Zm13.33,53.31-4.3,2-3.88-2.71.41-4.72,4.3-2L173,234.2Z"/><path class="cls-7" d="M160.4,188.13a23.81,23.81,0,0,0-10.56-9.27l-2.35,1.1,5.29,9.6a10.23,10.23,0,0,1-3.23,5.72h0a10.31,10.31,0,0,1-6.47-1.19l-4-10.22-2.35,1.1a23.79,23.79,0,0,0,.34,14s3.66,4.91,9.23,4.56l16.2,30.92a8.47,8.47,0,1,0,8.76-4.1L158,198.14C161.81,194.09,160.4,188.13,160.4,188.13Zm13.32,53.31-4.29,2-3.88-2.71L166,236l4.29-2,3.88,2.72Z"/><rect class="cls-8" x="136.04" y="181.76" width="2.59" height="2.78" transform="translate(-64.62 75.35) rotate(-25.04)"/><rect class="cls-8" x="146.78" y="176.76" width="2.59" height="2.78" transform="translate(-61.49 79.43) rotate(-25.04)"/><rect class="cls-8" x="168.62" y="239.79" width="4.74" height="2.78" transform="translate(-86.02 95.05) rotate(-25.04)"/><path class="cls-9" d="M149.79,205.86,162.87,231a6.41,6.41,0,0,0,5.29-2.47L157.5,202.25A10.06,10.06,0,0,0,149.79,205.86Zm17.36,22.89a8.06,8.06,0,0,1-1.7,1.11,6.44,6.44,0,0,1-1.8.54l-13.11-24.64a13.75,13.75,0,0,1,3.15-2.07,11,11,0,0,1,3.24-.95Z"/><path class="cls-8" d="M167.15,228.75l1-.21a5.66,5.66,0,0,1-5.29,2.47l.78-.61A7.17,7.17,0,0,0,167.15,228.75Z"/><path class="cls-10" d="M149.79,205.86l.75-.1a12.21,12.21,0,0,1,6.39-3l.57-.49a7.86,7.86,0,0,0-4.27.93A7.77,7.77,0,0,0,149.79,205.86Z"/><path class="cls-11" d="M146.32,203.56A29,29,0,0,0,158,198.14l1.7,4.12s-1.93-1.91-6.17-.18c-4.95,2-4.68,6-4.68,6Z"/><path class="cls-12" d="M159.68,202.26a5,5,0,0,0-2.59-.89L169.75,232l1.53-1.58Z"/><path class="cls-13" d="M159.68,202.26s-1.33,4.09,2.48,6Z"/><path class="cls-14" d="M350.35,400h-47C298.43,372.68,287,337.13,287,337.13c-2.78-1.65-8.21.38-8.21.38L261.6,400H218.66c-2.28-38.56,18.82-82.33,18.82-82.33h0a4.73,4.73,0,0,1-.56-2.39,5.68,5.68,0,0,1,1.6-1.86c1.16-1.06,2.54-2.12,2.54-2.12l80.11-.5s.81.41,1.84,1h0c1.75,1.06,4.12,2.7,4.12,3.9a5.47,5.47,0,0,1-.81,3l0,.05C343.46,351.15,350.35,400,350.35,400Z"/><ellipse class="cls-15" cx="240.98" cy="367.92" rx="46.31" ry="17.92" transform="translate(-171.69 520.02) rotate(-77.01)"/><ellipse class="cls-16" cx="324.18" cy="367.47" rx="17.92" ry="46.31" transform="translate(-87.13 101.1) rotate(-15.65)"/><path class="cls-17" d="M256,400l-.49-.08c5.47-32.2,19.34-59.21,19.48-59.48l.05-.07,3.54-3.09.33.38-3.5,3.06C274.83,342,261.39,368.51,256,400Z"/><path class="cls-18" d="M309.73,400c-5.35-31.55-19.16-58.34-19.78-59.54l-3.12-2.8.33-.38,3.22,2.91c.14.27,14.38,27.53,19.85,59.73Z"/><path class="cls-19" d="M327.13,315.72a5.47,5.47,0,0,1-.81,3l0,.05c-16.68,3.77-29.37,19.34-29.37,19.34C306,355.51,321.16,400,321.16,400H303.35C298.43,372.68,287,337.13,287,337.13c-2.78-1.65-8.21.38-8.21.38L261.6,400H250.48c4-26.18,15.73-58.14,15.73-58.14-11.55-13.45-28.73-24.19-28.73-24.19h0l-2-1.28,1.48-1.11C244.34,322.4,268.3,331.71,269,332l-30.53-18.59c1.16-1.06,2.54-2.12,2.54-2.12l80.11-.5s.81.41,1.84,1l-21.88,12Z"/><polygon class="cls-20" points="286.99 337.13 296.34 331.06 294.12 337.13 292.5 355.39 286.99 337.13"/><polygon class="cls-21" points="278.78 337.51 269.04 332 248.19 322.61 274.74 340.16 276.33 346.45 278.78 337.51"/><path class="cls-22" d="M305.58,149.65c.06.43.11.66.11.66A57.27,57.27,0,0,1,304,156a46,46,0,0,1-6.23,12.12,23.85,23.85,0,0,1-2.72,3.18c-14.59-4.58-21.78-18.85-24.54-26a.36.36,0,0,1,0-.11c-.53-1.34-.88-2.42-1.1-3.12h0c-.17-.56-.25-.87-.25-.87l.18-.37,0-.05c.24-.5.48-1,.7-1.5a71.16,71.16,0,0,0,4-11.17c.71-2.62,1.09-4.64,1.27-5.71.09-.55.13-.85.13-.85l6.8,3.59,23.43,12.4a38.55,38.55,0,0,0-.5,5.94c0,1.25,0,2.37.09,3.32.07,1.16.19,2.08.28,2.68h0A.68.68,0,0,0,305.58,149.65Z"/><path class="cls-23" d="M299.08,172.84a20.1,20.1,0,0,1-4.84,3.54l-.12.07-.14-.08h0c-.51-.31-2.25-1.38-4.59-3.14-6.12-4.61-16.34-13.93-19.26-26.49l0,0a31.14,31.14,0,0,1-.7-4.59h0c0-.41-.06-.82-.07-1.24a64.43,64.43,0,0,0,5.55,9.92c4.14,6.06,10.35,12.67,17.77,12.71,6.42,0,9.71-4.35,11.38-8.4a22.92,22.92,0,0,0,1.35-4.6,0,0,0,0,0,0,0c.07-.36.12-.68.17-.95h0c0-.14,0-.26.05-.37.06-.45.08-.71.08-.71S308.15,163.77,299.08,172.84Z"/><path class="cls-24" d="M299.08,172.84a20.1,20.1,0,0,1-4.84,3.54H294c-.51-.31-2.25-1.38-4.59-3.14-6.12-4.61-16.34-13.93-19.26-26.49l0,0a31.14,31.14,0,0,1-.7-4.59h0c0-.41-.06-.82-.07-1.24a64.43,64.43,0,0,0,5.55,9.92s4,11.1,12.78,16.6c4.38,2.75,7.7,2.35,10.14.73a15.09,15.09,0,0,0,4.95-6.54A15.38,15.38,0,0,0,304,156q0-.5,0-.9a22.92,22.92,0,0,0,1.35-4.6,0,0,0,0,0,0,0c.07-.36.12-.68.17-.95h0c0-.14,0-.26.05-.37.06-.45.08-.71.08-.71S308.15,163.77,299.08,172.84Z"/><path class="cls-25" d="M355.7,263.91l-.16.08c-.82.1-3.37-.46-6.71-3.35h0l0,0,0,0c-2.8-2.45-6.16-6.54-9.51-13.24-6.7-13.39-8.62-22.33-8.93-23.89l0-.24-3.91,6.2c-2.65,8-7.67,40.95-7.58,42.37s4.45,8.34,4.36,9.19v0c-.12.86-2.08,2.75-2.64,4.81-.38,1.37,2.28,5.69,4.15,8.92h0a13.13,13.13,0,0,1,1.72,3.58c0,1.51-4.74,8.9-4.74,8.9v4l-.07.07-.22.2-.18.15c-1.8,1.42-9.43,6.07-33.27,7.35-28.25,1.51-47.07-7.58-47.07-7.58l1.42-3.89s-1.32-1.13-1.42-1.7,1-1.9,1-1.9-2.84-1.51-2.84-3.41,5.69-7.76,5.5-12.79-4.55-9.47-5.12-12.31,7.39-9.85,7.39-9.85c-6.82-21.6-8.15-50.59-8.15-50.59l-1.32-1.52s-8.15,18.57-15.54,27.66c-.88,1.08-1.81,2.15-2.77,3.18a81,81,0,0,1-6.36,6.15c-5.12,4.46-9.77,7.39-10.95,7.16-1.9-.38-9.48-15.35-9.13-30.7.16-7.3,4.56-15.47,9.13-22,.49-.7,1-1.39,1.48-2.06a104.89,104.89,0,0,1,7.84-9.45c.58-.62.91-.95.91-.95s-1-3.35-1.75-6.26a1.6,1.6,0,0,0,0-.21.36.36,0,0,0,0-.1.31.31,0,0,0,0-.07c-.42-1.79-.68-3.34-.44-3.72.63-1,4.3-2.15,4.93-2.9s3.28-13.52,5.3-14.91,5.35-2.3,16.72-6.77l1.73-.68c12.75-5.05,25.26-11.18,25.26-11.18l4.8-5.9h2.14l-.7,1.5,0,.05c.34,1.52.73,3,1.17,4.37a.36.36,0,0,0,0,.11c6.6,20.82,23.58,27.53,23.58,27.53,11.8-8.71,11.57-22.54,11.57-22.54v-1.9l2.21.66,1.51,3.6s2.56,4,12.7,8.44a60.32,60.32,0,0,1,5.57,2.85c9.28,5.27,19.6,13.42,20.39,15.15a5.61,5.61,0,0,1,.27.86h0c1.09,4.28,3.33,20.31,5.41,26a13.1,13.1,0,0,0,4.86,6.56h0a7.61,7.61,0,0,0,1.94,1q.24,1.32.45,2.61C365.83,244,357.56,262.61,355.7,263.91Z"/><path class="cls-26" d="M246.41,211.77l-8.24,2.77L236.85,213s-8.15,18.57-15.54,27.66c-.88,1.08-1.81,2.15-2.77,3.18a81,81,0,0,1-6.36,6.15l-6.28-27.07-3.19-20.55a104.89,104.89,0,0,1,7.84-9.45c.58-.62.91-.95.91-.95s-1-3.35-1.75-6.26a1.6,1.6,0,0,0-.05-.21.36.36,0,0,0,0-.1.31.31,0,0,0,0-.07c-.42-1.79-.68-3.34-.44-3.72.63-1,4.3-2.15,4.93-2.9s3.28-13.52,5.3-14.91c0,0-1.32,12.25,5.69,27.79l3.41,4.8,10,8S242.28,209.46,246.41,211.77Z"/><path class="cls-27" d="M222.57,233.93c-1.77,13.13-21.34,23.24-21.34,23.24-4.36,0-9.23-7.58-13.65-16.93s-4.69-36.21-4.92-37.87-2.7-5-2.85-6.4,4-4.36,4-4.36l0-.07,0-.07c-.43-.92-2.85-6.11-2.68-7.06s4.82-3.31,4.82-3.31l.29,5.11s10.78-2,14.43-10.39l.64-2.56,1.8,1.2v11s.37,1.71.94,1.71,4.77-2.1,5.65-1.81,1.76,6.17,2.94,6.92,4.3,2.94,4.77,4a19,19,0,0,1,.25,4.15,42.4,42.4,0,0,0,.41,6.94C218.66,210.27,224.34,220.79,222.57,233.93Z"/><path class="cls-28" d="M401.56,222.68c-.88,1.39-5.3,4.3-6.44,5.44s0,4.87,0,4.87a153.35,153.35,0,0,1-39.88,30.54l-.16.08c-11.66-7.84-10.66-20.75-6.79-31.63a82.1,82.1,0,0,1,10.32-19.38h0a24.41,24.41,0,0,1,5.92-1.64,3.59,3.59,0,0,1,2.19.68c1.42.88,2.62,2.27,3.78,1.69,1.71-.86,5.53-9.89,8.12-10.14,1.81-.17,4.32,1.67,6,2.72.73.46,1.3.77,1.58.69,1-.25,4.17-4.11,4.43-4.21s1.72,1,1.72,1l-1,1.28a35,35,0,0,0,6.76,15.22l3.47-5.08S402.45,221.29,401.56,222.68Z"/><path class="cls-29" d="M305.63,149.26c0,.13,0,.26-.05.39a7.73,7.73,0,0,1-.19.8,0,0,0,0,1,0,0c-1.19,4.41-6,8.92-12.07,6.75-6.63-2.37-19.25-29.1-19.25-29.1l1.27-5.71,29.95,24.4.33,2.31Z"/><path class="cls-30" d="M205.9,144.37s-1.83-10.11-1-17.56a81,81,0,0,0-.21-15.92,4.11,4.11,0,0,0-3.14,0c-1.32.76-4.42,8.47-3,14.66s.32,21,.32,21h-2.09l-4.54-6.25-2.21-.64s-12.73,12-12.54,19.14l1.66,6.35,15.68-.54L205,153Z"/><path class="cls-31" d="M190,139.69a81.75,81.75,0,0,0,2.11,14.78,3.54,3.54,0,0,1-3.57,3l-.8-.9s-.57,3.17-3.46,3.41l-2.75-2.75.71,2.27a3.89,3.89,0,0,1-3.6,2.33s-4.35-3.41-4.64-7.87l4.31-3.64v-2.8l5.12-3.6.09-2A12.09,12.09,0,0,1,190,139.69Z"/><path class="cls-32" d="M205.07,124.67a7.1,7.1,0,0,1-1.85,2.71,16,16,0,0,1-4.25,1.34l-.14,17.86h-2.09l-4.54-6.25s2.3,3.56,2.44,6.25l-1.8.88-1.56-5.35-.74,3.85.74,4.8a12.57,12.57,0,0,1,7.57-2.42l.74,1.33s-8.83,7.31-10.87,11.62c0,0,4.36-5.54,14.31-11.65l.95-2.93,1.25-7S204,129.59,205.07,124.67Z"/><path class="cls-33" d="M212.47,155.8c-.82,2.46-9.41,12.69-10.36,14.91a30,30,0,0,0-1.52,5.11c-4.22,9.13-14.43,10.39-14.43,10.39l-.47-8.24s-5.49-3.16-6.42-4.89v0l-.11-.29a68.8,68.8,0,0,1,0-7.58l9.61-3.89c4.17-5.4,14.31-11.65,14.31-11.65l.47-2.83c-7.28-3.58-6.06-14.41-4.83-15.74a5.4,5.4,0,0,1,3.5-1.32s2.66,8.71,4.36,12.79S213.29,153.34,212.47,155.8Z"/><path class="cls-34" d="M183.51,141.87s1.08,9.95,4.22,14.69a23.13,23.13,0,0,1-4.31-12.65Z"/><path class="cls-34" d="M178.3,147.51s1,8,6,12.46c0,0-4.36-2.18-6-9.66Z"/><path class="cls-35" d="M203.44,168.59s-10.83,10.52-17.75,9.38l.47,8.24a18.28,18.28,0,0,0,15.07-13A31.55,31.55,0,0,1,203.44,168.59Z"/><path class="cls-36" d="M432.48,182.89s-10,18.19-21.6,23.78h-4l-9.19,13.93s-5.94-3.73-6.38-16a11.17,11.17,0,0,0,2.59-4.62s-3.28-2.58-4.17-4.47-1.2-7.58-1.83-9.92-6-7.2-7.2-7.83-6.63-.95-6.63-.95-.76-2,0-2.9,9.22-4.24,13.83-1.08a20.77,20.77,0,0,0,.82,3.67c.51,1.26,4.55,5.74,5.18,5.74s3.35-2.27,4.55-4a178.56,178.56,0,0,0,8.74-19.32.5.5,0,0,1,0-.13c0-.07.05-.14.06-.2a.93.93,0,0,0,0-.13s0,0,0-.05c1.14-3.85,7.77-11.24,11.31-13.26a2.09,2.09,0,0,1,2.33,1.51s-2.84,8.09-5.81,12.89c-.5.81-1,1.76-1.6,2.78h0c-2.53,4.65-5.38,10.74-5.79,11.63l-.05.11,1.58.81,4.27-4.05,4.38-4.15,10,10.61-1,1.26-3.14,4,1.59.29,3.7-4.09Z"/><path class="cls-37" d="M430.15,186.76,427,191.43s-17.46-13.46-21.25-14.6-5.18-.38-5.18-.38l-3.91,5s7.2,6.38,7.83,15c0,0-2.4-10.86-10.55-14.15.63,0,3.35-2.27,4.55-4a178.56,178.56,0,0,0,8.74-19.32,5,5,0,0,0,.16,3.41c.86,1.59,5.92.09,6.22,0h0l-5.8,11.63-.05.11,1.58.81,4.27-4.05-2.14,5L427,178.53l-3.14,4,1.59.29Z"/><path class="cls-38" d="M418,166.66s3-.44,5,3.48l-.45,1.26s3,.58,5.81,5.37a16.14,16.14,0,0,1-8.78,6.69s-2.9-.82-3.41-3.28l.57-1.58-2.27,1.71s-2.72.82-3.92-3.23Z"/><path class="cls-39" d="M433.4,181.63a4.69,4.69,0,0,0-2.47-4.8l-6,6.63a3.09,3.09,0,0,0,2.78,2.59S431.82,184.66,433.4,181.63Z"/><path class="cls-40" d="M389.75,195.53a44.46,44.46,0,0,0,17.15,11.14l-4.39,6.66-9.17-11.65.58-1.68S390.26,197.24,389.75,195.53Z"/><path class="cls-34" d="M422.53,171.4s-2.9,4.8-5.81,7.2l-.57,1.58s5.64-3.81,7.72-8.2A3.48,3.48,0,0,0,422.53,171.4Z"/><path class="cls-41" d="M401.56,222.68c-.88,1.39-5.3,4.3-6.44,5.44s0,4.87,0,4.87a153.35,153.35,0,0,1-39.88,30.54l-.16.08c-1.52.19-8.91-1.89-16.3-16.67-6.7-13.39-8.62-22.33-8.93-23.89l0-.24,1.63-2.21,2.42-27.28,1.7,5.49c6.44-7.77,12.51-19.7,12.51-19.7l.27.86h0c1.09,4.28,3.33,20.31,5.41,26a13.1,13.1,0,0,0,4.86,6.56v0h0c-5.93,5.41-8.87,13.19-10.32,19.38a53.68,53.68,0,0,0-1.42,10,67.43,67.43,0,0,1,6.82-17A36.5,36.5,0,0,1,361,216.2a58.85,58.85,0,0,1,5.72-4.58c1.42.88,2.62,2.27,3.78,1.69-7.8,11.71-7.61,34.89-.28,30.47s9-13.8,9-13.8c-1.73-11.43-1.21-24.32.18-26.77,1.68,0,6.51,3.45,6.79,3.37A39.6,39.6,0,0,0,392.09,229l4.17-6.45a40,40,0,0,1-5.62-20.19c.25-.11,1.72,1,1.72,1l-1,1.28a35,35,0,0,0,6.76,15.22l3.47-5.08S402.45,221.29,401.56,222.68Z"/><path class="cls-42" d="M321.16,306.81v4l-.07.07-.22.2-.18.15c-1.8,1.42-9.43,6.07-33.27,7.35-28.25,1.51-47.07-7.58-47.07-7.58l1.42-3.89s-1.32-1.13-1.42-1.7,1-1.9,1-1.9-2.84-1.51-2.84-3.41c0-1.71,4.64-6.66,5.39-11.31a6.76,6.76,0,0,0,.11-1.48c-.19-5-4.51-9.43-5.11-12.27v0c-.57-2.84,7.39-9.85,7.39-9.85-6.82-21.6-8.15-50.59-8.15-50.59L236.85,213s-8.15,18.57-15.54,27.66-18.19,16.87-20.08,16.49c-4.36,0-9.23-7.58-13.65-16.93s-4.69-36.21-4.92-37.87-2.7-5-2.85-6.4c4.74,8.15,12.29,5.75,12.29,5.75-5.47.12-8.31-10.11-8.31-10.11l0-.07,0-.07-2.67-7.05c.3.34,6.55,7.33,12.59,3,6.19-4.42,9.38-13,9.38-13v11s.37,1.71.94,1.71a134.15,134.15,0,0,1-2.74,17.29c-2.81,13.13-6.66,25.81-6.66,25.81s10.44-5.68,14.11-20.08a60.74,60.74,0,0,0,1.87-17.24,43.22,43.22,0,0,0-.84-7.21,1.6,1.6,0,0,0-.05-.21.36.36,0,0,0,0-.1.43.43,0,0,0,0,0l1,2.14,1.92,4.76c2.23,18.48-2.37,46.33-2.37,46.33,6.7-8.34,8.09-26.78,7.8-31.26-.13-2.14-.3-4.78-.41-6.94-.15-2.36-.25-4.15-.25-4.15L231,204.43l-2.53-8,10,8s9,10.8,18.19,12.06,43.07.51,43.07.51-29.43,1.89-38,4.42-10.23,5.43-10.23,5.43c6.21,31.59,40.58,42.24,41.65,42.56-31.18-4.68-45.69-31.19-45.69-31.19s-.51,14.91,1.89,20.59,16.55,19.58,34.74,22.48a41.89,41.89,0,0,0,4.53.46c15.34.72,28-7.12,29.34-8l.11-.07,0,0c-.49.75-6.78,9.59-32.18,10.56-1.54.06-3,.05-4.5,0h0c-23.54-1-35.53-16.67-35.53-16.67s-8.71,4.68-3.15,11.62l.18.22c1.64,1.89,5.25,4.2,9.52,6.58l.35.2c5.16,2.85,11.21,5.79,15.89,8.22l.07,0a59.23,59.23,0,0,1,6.52,3.73h0c1.32,1,1.59,1.58.3,1.73-6.57.76-31.45-4.67-32.46-3.16s1.23,5.43,1.23,5.43c22.84,11.32,71.71,5.74,73.25,5.57-40.9,10.47-74.36-2.79-74.36-2.79l1.11,3.92A146.33,146.33,0,0,0,284,315.78c21.48.5,34.87-5,34.87-5Z"/><path class="cls-43" d="M304.43,216.87s16.27.89,27,3.73L325.9,229A73.77,73.77,0,0,0,304.43,216.87Z"/><path class="cls-44" d="M319.63,261.71s-10.15,8.47-20.13,12.38a67.34,67.34,0,0,1-19.58,4.3s5.74,1.7,19.86-.57,18.94-9.92,18.94-9.92Z"/><path class="cls-45" d="M324.18,294.32h0c-18.78,4.85-42.62-2.11-42.42-3s6.53.38,21.21-2.56c14.23-2.85,19.39-7.91,19.7-8.22-.12.86-2.08,2.75-2.64,4.81C319.65,286.77,322.31,291.09,324.18,294.32Z"/><path class="cls-46" d="M273.17,219.42c-16,1.63-20.36,6.1-20.36,6.1-4.51.57-14.64-11-14.64-11L236.85,213s-8.15,18.57-15.54,27.66c-.88,1.08-1.81,2.15-2.77,3.18l1.05-2.36s1.72-.82,2.22-9.85S218,209.17,218,207.34s-.66-11.09-.66-11.09L231,204.43l-2.53-8,10,8s3.91,5.88,13.78,10.78C261.58,219.84,272,219.47,273.17,219.42Z"/><path class="cls-47" d="M236.85,213l9.56-1.25a71.76,71.76,0,0,0,11.49,5.65l-6.4,9.43s2.54,13.44,9.82,21c0,0-19.32-10.73-22-19.75Z"/><path class="cls-48" d="M181.06,184.42l2.73,7.19s2.79,9.7,8.31,10.11S203,185.45,203,185.45v-11s-5.88,12.6-12.22,14S181.06,184.42,181.06,184.42Z"/><path class="cls-49" d="M214.11,178.73s4.93,9.85,11,12.88c0,0-7.21-17.5-5.69-27.79C219.41,163.82,216.76,165.47,214.11,178.73Z"/><path class="cls-50" d="M333.86,193.32l1.7,5.49,1.73,45.05a108.67,108.67,0,0,1-7.44-20.81l1.6-2.45S334.12,203.62,333.86,193.32Z"/><path class="cls-51" d="M386.21,206.58s-1,22.13,8.45,24l.46,2.37S383,232.54,386.21,206.58Z"/><path class="cls-52" d="M370.52,213.31s-.36.79-3.78-1.69c0,0-11.83,8.38-16.39,20.19,0,0,7.3-10.85,11.18-12s4.81,3.16,4.81,3.16S367.88,216.84,370.52,213.31Z"/><path class="cls-53" d="M179.81,196s4.55,8.39,13.08,5.76c0,0-5.11,3.44-10.23.64C182.66,202.37,179.49,196.92,179.81,196Z"/><path class="cls-54" d="M209.62,185.35s6.26,23.4-10.07,41a27.14,27.14,0,0,0,13-18.05A38.75,38.75,0,0,0,209.62,185.35Z"/><path class="cls-55" d="M321.76,166.65s-.7,10.56-5.76,18.14-15.11,12.69-15.11,12.69,12.6-4.64,18.38-11.17S321.76,166.65,321.76,166.65Z"/><path class="cls-56" d="M257.31,150.76a66.82,66.82,0,0,0,2.84,17.83c2.85,9,27.52,24.73,27.52,24.73s-25.43-10.57-30.36-20.06S257.31,150.76,257.31,150.76Z"/><path class="cls-57" d="M257,192.82V207.2s33.11-.27,70.24,2.19l.85-12.94A646.53,646.53,0,0,0,257,192.82Z"/><path class="cls-58" d="M261.31,194.14l.83,0a12.3,12.3,0,0,1,3.25.45,4.57,4.57,0,0,1,1.86,1.12,2.48,2.48,0,0,1,.76,1.67,2.2,2.2,0,0,1-.48,1.42,3.43,3.43,0,0,1-1.49,1.06,7.88,7.88,0,0,1-1.92.47l.14,4.26-2.57-.06ZM264,195.8l.09,3.06c.86-.29,1.27-.79,1.25-1.5a1.5,1.5,0,0,0-.35-1A2.21,2.21,0,0,0,264,195.8Z"/><path class="cls-58" d="M271.15,198a1.08,1.08,0,0,0,.25-.32,1.63,1.63,0,0,1,.82-.68,2.5,2.5,0,0,1,.94-.09l0,1.5a2.9,2.9,0,0,0-1.33.43c-.45.32-.68.6-.67.83l.1,5.15-2.2-.05-.15-6.49c0-.25-.18-.46-.52-.63l1.33-.85a2.61,2.61,0,0,1,1,.39A1.41,1.41,0,0,1,271.15,198Z"/><path class="cls-58" d="M275.8,196.94a2.45,2.45,0,0,1,1.62.65,4.64,4.64,0,0,1,1.11,3.46,4.28,4.28,0,0,1-1.06,3.35,2.19,2.19,0,0,1-1.58.55,2.34,2.34,0,0,1-1.61-.63,4.48,4.48,0,0,1-1.14-3.41,4.3,4.3,0,0,1,1.05-3.41A2.17,2.17,0,0,1,275.8,196.94Zm0,1.38a.83.83,0,0,0-.28.33,4.13,4.13,0,0,0-.14,1c-.06.92-.08,1.52-.08,1.8,0,1.18.2,1.9.56,2.15a.66.66,0,0,0,.27-.28,4.48,4.48,0,0,0,.14-1c.07-.93.1-1.53.09-1.82C276.36,199.27,276.17,198.55,275.81,198.32Z"/><path class="cls-58" d="M279.58,197.14l2.17.06,0,7.71c0,.48-.32.86-1,1.15a5,5,0,0,1-2,.35v-1.2a1.09,1.09,0,0,0,.55-.15.59.59,0,0,0,.29-.48Zm1-2.43a1.82,1.82,0,0,1,.9.24.61.61,0,0,1,.37.51c0,.19-.13.35-.37.48a1.81,1.81,0,0,1-.9.18,1.75,1.75,0,0,1-.89-.24c-.25-.14-.38-.31-.38-.5a.58.58,0,0,1,.38-.49A1.8,1.8,0,0,1,280.61,194.71Z"/><path class="cls-58" d="M287.94,205.11a5,5,0,0,1-1.14.09,4.76,4.76,0,0,1-2.79-.92,3.61,3.61,0,0,1-1.2-3.09v-.9a3.06,3.06,0,0,1,1-2.56,2.58,2.58,0,0,1,1.73-.49,2.8,2.8,0,0,1,2,.7,2.15,2.15,0,0,1,.64,1.56,2.05,2.05,0,0,1-.81,1.69,4.72,4.72,0,0,1-2.23.83,1.83,1.83,0,0,0,.75,1.52,2.06,2.06,0,0,0,1.23.41,4.09,4.09,0,0,0,.9-.13Zm-2.4-6.63a1.4,1.4,0,0,0-.38.43,1.74,1.74,0,0,0-.18.82v1a1.42,1.42,0,0,0,.75-.39,1.24,1.24,0,0,0,.27-.88A1.13,1.13,0,0,0,285.54,198.48Z"/><path class="cls-58" d="M292.64,205.13a3.47,3.47,0,0,1-.49.11,2.87,2.87,0,0,1-.62.06,3.22,3.22,0,0,1-1.27-.28,2,2,0,0,1-.91-.79,4.5,4.5,0,0,1-.59-2.45v-1.13a3.24,3.24,0,0,1,1.11-2.68,3,3,0,0,1,1.95-.54,7.28,7.28,0,0,1,.94.12l0,1.2-.05,0a1.48,1.48,0,0,0-.49-.1,1.12,1.12,0,0,0-.82.27,2.53,2.53,0,0,0-.5,1.81v1a3.4,3.4,0,0,0,.38,2.12.9.9,0,0,0,.68.28,2,2,0,0,0,.72-.13Z"/><path class="cls-58" d="M295.77,196.38l.61,0,0,1.26,1,0,0,1-1,0-.12,5.26a.31.31,0,0,0,.16.28.65.65,0,0,0,.37.11,1.13,1.13,0,0,0,.45-.08l0,1a3,3,0,0,1-1.09.18,2.68,2.68,0,0,1-1.42-.37,1.1,1.1,0,0,1-.53-1l.11-5.44-1.07,0v-.36A18.27,18.27,0,0,0,295.77,196.38Z"/><path class="cls-58" d="M300.63,197.71a2.15,2.15,0,0,1,1.51.64,5.82,5.82,0,0,1-.24,6.61,2.15,2.15,0,0,1-1.52.54,2.21,2.21,0,0,1-1.5-.61,4.36,4.36,0,0,1-.93-3.33,4.44,4.44,0,0,1,1.13-3.31A2.15,2.15,0,0,1,300.63,197.71Zm0,1.34a.89.89,0,0,0-.29.32,4.38,4.38,0,0,0-.17,1c-.09.89-.14,1.48-.15,1.75,0,1.15.11,1.85.45,2.09a.75.75,0,0,0,.26-.27,4.68,4.68,0,0,0,.17-1c.11-.9.16-1.48.17-1.76C301.07,200,300.92,199.28,300.59,199.05Z"/><path class="cls-58" d="M306.06,199a1.05,1.05,0,0,0,.24-.29,1.66,1.66,0,0,1,.81-.66,2.14,2.14,0,0,1,.87-.09l-.06,1.44a2.75,2.75,0,0,0-1.25.41c-.44.31-.67.58-.68.8l-.2,4.95-2,0,.23-6.23c0-.24-.14-.44-.44-.6l1.28-.82a2.24,2.24,0,0,1,.87.37A1.35,1.35,0,0,1,306.06,199Z"/><path class="cls-58" d="M310.51,205.09a2,2,0,0,1-1.39.6,1.57,1.57,0,0,1-1.14-.48,4.1,4.1,0,0,1-.6-2.9l0-.91a3.23,3.23,0,0,1,1.45-2.7,4.67,4.67,0,0,1,2.79-.65l.94,0-.3,5.66a1.52,1.52,0,0,0,.1.73.85.85,0,0,0,.36.34l-1.2.93a1.64,1.64,0,0,1-.58-.2A1.62,1.62,0,0,1,310.51,205.09Zm0-5.61a1.29,1.29,0,0,0-.75.49,3.06,3.06,0,0,0-.3,1.41l-.06,1.38a3,3,0,0,0,.23,1.7.41.41,0,0,0,.32.17.53.53,0,0,0,.31-.07Z"/><path class="cls-58" d="M315.54,197l.59,0-.08,1.23,1,0-.06,1-.95,0-.3,5.13a.29.29,0,0,0,.14.28.7.7,0,0,0,.36.11,1.59,1.59,0,0,0,.43-.08l-.06,1a2.83,2.83,0,0,1-1.05.18,2.43,2.43,0,0,1-1.35-.36,1,1,0,0,1-.47-1l.29-5.31-1,0v-.35A18,18,0,0,0,315.54,197Z"/><path class="cls-58" d="M321.94,205.86a4.32,4.32,0,0,1-1.06.09,4,4,0,0,1-2.53-.88,3.32,3.32,0,0,1-.93-3l.05-.85a3.22,3.22,0,0,1,1-2.47,2.46,2.46,0,0,1,1.62-.47,2.37,2.37,0,0,1,1.78.68,2,2,0,0,1,.5,1.49,2.17,2.17,0,0,1-.84,1.63,4.57,4.57,0,0,1-2.12.79,1.72,1.72,0,0,0,.6,1.46,1.79,1.79,0,0,0,1.12.39,3.2,3.2,0,0,0,.85-.12Zm-1.83-6.36a1.56,1.56,0,0,0-.39.41,2,2,0,0,0-.21.79l-.06,1a1.47,1.47,0,0,0,.72-.38,1.24,1.24,0,0,0,.3-.84A1.06,1.06,0,0,0,320.11,199.5Z"/><path class="cls-59" d="M309.41,152.67c-.78,9.3-3.61,15.78-6.63,20.15-4.16,6-8.66,8.05-8.66,8.05a52,52,0,0,1-11.76-7.09,60,60,0,0,1-19.21-28.5c6,14.54,14.86,23.35,21.56,28.31a43.28,43.28,0,0,0,9.41,5.52v-4.65a30.9,30.9,0,0,1-3.1-1.36c-11.8-5.95-18-18.35-20.9-26.37l0,0a57,57,0,0,1-2.18-7.39h2.14l-.7,1.5,0,.05c.34,1.52.73,3,1.17,4.37a.36.36,0,0,0,0,.11c6.6,20.82,23.58,27.53,23.58,27.53,11.8-8.71,11.57-22.54,11.57-22.54v-1.9l2.21.66Z"/><path class="cls-60" d="M379.42,203.21s-3.21,10.47-.18,26.77c0,0,1.51-20.65,2.65-22.45s4.32-.95,4.32-.95A72.93,72.93,0,0,0,379.42,203.21Z"/><path class="cls-61" d="M348.29,260.18c-2.8-2.45-6.16-6.54-9.51-13.24-6.7-13.39-8.62-22.33-8.93-23.89l1.59-2.45,2.13-20.6,2-1.19a84.28,84.28,0,0,0,12.51-19.7,5.61,5.61,0,0,1,.27.86h0c1.09,4.28,3.33,20.31,5.41,26a13.1,13.1,0,0,0,4.86,6.56s-12.31,18.26-12.91,31.29C345.17,255.72,347.81,259.58,348.29,260.18Z"/><path class="cls-62" d="M275.2,298.26S253,294.62,244,288.78h0a6.76,6.76,0,0,0,.11-1.48c-.19-5-4.51-9.43-5.11-12.27.1.27.75,1.77,3.9,4.47a66.94,66.94,0,0,0,9.52,6.58l.35.2c6.4,3.78,11.91,6.34,15.89,8.22l.07,0c3.58,1.68,5.9,2.79,6.52,3.73Z"/><path class="cls-63" d="M322.67,280.59c-.12.86-2.08,2.75-2.64,4.81,0,0-8.14,8.62-38.27,6,.2-.85,6.53.38,21.21-2.56C317.2,286,322.36,280.9,322.67,280.59Z"/><path class="cls-64" d="M327.68,164l-19.26,6.24-5.64,2.62h-8.66l-3.1.25-1.64.12-4.67.37-2.35.19-23.1-8.36-4.13-1.49-19-6.88,1.73-.68c12.75-5.05,25.26-11.18,25.26-11.18l4.8-5.9h2.14a71.16,71.16,0,0,0,4-11.17l1.27-5.71c.09-.55.13-.85.13-.85l6.8,3.59,22.93,18.34c0,1.25,0,2.37.09,3.32l.33,2.31c.06-.45.08-.71.08-.71l2.21.66,1.51,3.6s2.56,4,12.7,8.44A60.32,60.32,0,0,1,327.68,164Z"/><path class="cls-65" d="M313,146.39a31.37,31.37,0,0,1-18.89-2.78c-9.91-4.8-18.24-19-18.75-22.48s3.79-12.76,3.79-20-3.53-19.58,2.4-26.28,33.22-7.7,42.07.89c0,0,2.74,6.88,2.74,10.77a28.33,28.33,0,0,1-.42,3.91c-.08.59-.19,1.22-.29,1.87-.79,4.71-1.88,10.46-1.37,13a12.64,12.64,0,0,0,.79,2.46h0c1.09,2.52,2.71,4.53,3,6.71C328.46,117.34,324.64,137.55,313,146.39Z"/><path class="cls-66" d="M279.09,99.14s-2.45-6.15-8.61-6.25c0,0-3.6,1.43-4.17,4.17,0,0,1.33,10,2.84,14.59s7.08,4,7.08,4A23.53,23.53,0,0,0,279.09,99.14Z"/><path class="cls-67" d="M302.76,119.39a5.61,5.61,0,0,1,2.93.5c.89.67,4.11,3.79,8.18,4.65s6.81-2.62,7.67-2.8,1.83,1.05,1.83,1.05a3.45,3.45,0,0,0-2.5-2.06s-.86,3.27-6.76,2.15-8.42-3.74-8.42-3.74l-.3-.54A16.22,16.22,0,0,0,302.76,119.39Z"/><path class="cls-68" d="M294,88.8l.08-.63S300,77.83,311.67,77.55s14.28,7,14.28,7l2.16-3.28-4.92-10L289,70.73l-8.33,6.72-1.06,16.47,3.71,21.74,9,4.8,2.55-2.25c-.95-7.28-6.36-13.93-6.36-13.93l3.95-2.74s10.13,4.9,16,3.43c0,0,4.41-12.85,4.16-22.38C312.58,82.59,297.56,84.81,294,88.8Z"/><path class="cls-69" d="M293.52,89.56s.57-3.72,6.85-5.21c7-1.66,12.69-3.06,12.69-3.06s-1.24,4.08-3.57,5.61c0,0-7.41-.27-11.16.59S293.52,89.56,293.52,89.56Z"/><path class="cls-69" d="M326,84.57s-3.55,2.74-6,9.27c0,0,2.32-3,4.45-3a1.22,1.22,0,0,1,1.23,1.47A13.65,13.65,0,0,0,326,84.57Z"/><path class="cls-70" d="M295.87,100.09s.38-7.86,8.05-9.85a16,16,0,0,1,3,7.58S302.88,97.06,295.87,100.09Z"/><path class="cls-71" d="M317.85,103.22s.62-6.26,4.21-8.57c0,0,2.46,1.83,2.2,7.07C324.26,101.72,322.11,101,317.85,103.22Z"/><path class="cls-72" d="M295.87,100.09s2.49,3.07,9.47,3.67a11,11,0,0,0,1.21-6S300.13,97.16,295.87,100.09Z"/><path class="cls-72" d="M317.85,103.22v.92s1.07,2.24,4.93,2.62a10.75,10.75,0,0,0,1.34-5.07S321.67,101.07,317.85,103.22Z"/><path class="cls-73" d="M303.33,97.61a8.64,8.64,0,0,0-1.61,5.55,27.25,27.25,0,0,0,3.62.6,9.45,9.45,0,0,0,1.21-6A9.82,9.82,0,0,0,303.33,97.61Z"/><path class="cls-73" d="M321.51,101.79s-1,1.08-1.2,4.37a7.61,7.61,0,0,0,2.47.6,9.13,9.13,0,0,0,1.34-5.07A4.35,4.35,0,0,0,321.51,101.79Z"/><path class="cls-69" d="M302.76,103.39s-.64-4.25,1.79-5.87l2,.25a8.56,8.56,0,0,1-1.21,6S303.37,103.53,302.76,103.39Z"/><path class="cls-69" d="M322.39,101.61a17.89,17.89,0,0,0-1.33,4.83,5.67,5.67,0,0,0,1.72.32,8.31,8.31,0,0,0,1.34-5.07A4,4,0,0,0,322.39,101.61Z"/><path class="cls-74" d="M295.87,100.09s4.64-2.7,12.55-1.16L307,97.82A13.24,13.24,0,0,0,295.87,100.09Z"/><path class="cls-74" d="M317.85,103.22a12.49,12.49,0,0,1,8.06-.93L324.12,101S321.21,100.52,317.85,103.22Z"/><path class="cls-13" d="M300.89,100.09a2.77,2.77,0,0,1,2.4.88A2.2,2.2,0,0,1,300.89,100.09Z"/><path class="cls-13" d="M319.55,103.76s2-.39,2.67.52C322.22,104.28,321.16,105,319.55,103.76Z"/><path class="cls-75" d="M296.34,100.55a18.13,18.13,0,0,0,9.38,4.42l.15-2.1-.53.89S299.79,103.43,296.34,100.55Z"/><path class="cls-75" d="M317.85,104.14s.64,2.3,5.34,3.34l-.15-1.12-.26.4S319.44,106.33,317.85,104.14Z"/><path class="cls-76" d="M308.42,113.36a16.75,16.75,0,0,1,5,0c3.22.38,6.84,1.26,8.82,0,0,0-2.63,2.63-4.91,3s-5.75-1.6-5.75-1.6l-1.51,0A4.19,4.19,0,0,1,308.42,113.36Z"/><path class="cls-77" d="M310.27,114.81a2.46,2.46,0,0,1,1.45-.38c.67.13,1.34,1.09,1.34,1.09A6.61,6.61,0,0,0,310.27,114.81Z"/><path class="cls-78" d="M322.22,113.36c.84-.82-3.52-8.59-5.6-8.87s-4,8.7-4,8.7,2.89.41,5.71.78S322.22,113.36,322.22,113.36Z"/><path class="cls-79" d="M325.33,88.92c-1.18-.15-5.35,4.92-5.35,4.92s-2.65,8.21-2.13,10.64,7,3.73,7,3.73l.27-.43h0a12.64,12.64,0,0,1-.79-2.46c-.51-2.52.58-8.27,1.37-13a9.67,9.67,0,0,0,.29-1.87C326,89.7,325.87,89,325.33,88.92Z"/><path class="cls-80" d="M325.14,122.26c-1.33-2.78-.51-4.23-12.06-5.74-16.35-2.15-17.75,2.84-20.53,2.08a2.67,2.67,0,0,1-.33-.12c-3-1.17-10.1-8.14-10.28-17.53-.19-9.76,6.35-16.68,6.35-16.68-2.37-2-3.32-7.76-.76-10.23s6.92-1.89,17.62-.76,10.71.48,10.71.48c3.4.87,5.35,4.06,5.9,5.08.11.2.16.32.16.32l1.33-1.23a17.42,17.42,0,0,1,2.94,10.89s5.87-11.94,5.2-13.63a45.38,45.38,0,0,0-4.82-8h0s-.95-9.09-3.79-9.09-15,2.74-15,2.74a17.22,17.22,0,0,0,1.14-6.72l-.05.05c-4,3.55-7.83,3.94-13.31,6.48a13.87,13.87,0,0,0-5.13,3.72l-.37.44-.39.47c-.38.48-.77,1-1.24,1.47a.33.33,0,0,1-.06.06l0,0a15.68,15.68,0,0,1-1.59,1.49c-3.6,2.93-11.52,4.89-12.47,8s1.2,7.32,2.34,11.68a23.73,23.73,0,0,1,.61,8.21,16.13,16.13,0,0,1,2.52,12c-1.11,6.37-3.54,7.41-3.54,7.41a10.91,10.91,0,0,0-.9,6.79c3.5,13.92,18,22.21,18,22.21,12.88,4.8,21.35,2.71,21.35,2.71h0c9.37-6.11,12.58-26.33,12.72-27.27C327.23,120.3,325.49,123,325.14,122.26Zm-5.78,12.89c-2.27-.38-2.75-6.13-3.5-6.89s-4.87-.44-4.87-.44-3.79,4.3-5.3,4.42-9.6-3.16-7.85-8.08,7.85-5.56,7.85-5.56a14.8,14.8,0,0,0,7.89,3c4.74.31,6.45-.56,7-.81s3.62,1.13,3.54,5.43C324.08,129.17,321.64,135.53,319.36,135.15Z"/><path class="cls-81" d="M318.77,106.21s4.09,5.07,3.7,7c-.43,2.09-5.16,3.2-5.16,3.2s3.79-1.31,4.57-3.2A25.05,25.05,0,0,0,318.77,106.21Z"/><path class="cls-82" d="M326.19,88.82a17.42,17.42,0,0,0-2.94-10.89,29.09,29.09,0,0,0,3.31-10.71h0a36.71,36.71,0,0,1,1.54,7.1l3.28.86C332.06,76.88,326.19,88.82,326.19,88.82Z"/><path class="cls-83" d="M321.76,78.84c-.55-1-2.5-4.21-5.9-5.08,0,0,0,.66-10.71-.48s-15.06-1.7-17.62.76-1.61,8.24.76,10.23c0,0-6.54,6.92-6.35,16.68.18,9.39,7.27,16.36,10.28,17.53l-.14,1s.53,21.5,5.76,23.21,16.06.82,17.07,1.83-.14,2.61-.24,2.76h0s-8.47,2.09-21.35-2.71c0,0-14.48-8.29-18-22.21a10.91,10.91,0,0,1,.9-6.79s2.43-1,3.54-7.41a16.13,16.13,0,0,0-2.52-12,23.73,23.73,0,0,0-.61-8.21c-1.14-4.36-3.29-8.59-2.34-11.68a13.64,13.64,0,0,0,10-2.21s1.06-1.47,5.75-2.23,23.54,1.14,23.54,1.14a16.2,16.2,0,0,0-5.87-2.61c-3.76-1-16.6.16-18,.27,1.47-.26,16-2.76,17.69-2.26s8.06,3.41,8.06,3.41C315,69,309.32,62,309.32,62a88.48,88.48,0,0,0-13.17,1.23,17,17,0,0,0-7.7,3.54l1.24-1.47.39-.47.37-.44,1.82-.31,9.14-3.69c3.07-1.64,7-5.7,7.48-6.2l.05-.05a17.22,17.22,0,0,1-1.14,6.72c7.72-.95,10.33-.47,10.33-.47C321.64,65.37,321.76,78.84,321.76,78.84Z"/><path class="cls-84" d="M293.31,144.62a48.28,48.28,0,0,1,11.88-.83c7.14.28,11.24.31,9.47,3.54C314.66,147.33,305.69,149.36,293.31,144.62Z"/><path class="cls-85" d="M318.13,60.4s4.35-1.69,6.06-1.42a3.37,3.37,0,0,0-1.39-1.09c-.71-.19-15,3-15,3S316.71,59.83,318.13,60.4Z"/><path class="cls-86" d="M309.32,62s-.34,4.73-1.85,6.44l-17.69,2.26-5.19-.92a12.94,12.94,0,0,0,4.22-3.43C291,63.78,302.55,61.25,309.32,62Z"/><path class="cls-87" d="M326.56,67.22a39.82,39.82,0,0,1,1.55,7.11l3.28.86A23.45,23.45,0,0,0,326.56,67.22Z"/><path class="cls-88" d="M278.36,107.48s-1.24-6-4.29-8.92a7.18,7.18,0,0,0-6.53-2s.95,11.07,1.95,13.77,2.51,3.41,2.51,3.41a8.5,8.5,0,0,1-2.42-5.53c-.28-3.66-.38-8.83.43-9.44s4.06,1.78,4.06,1.78a10.84,10.84,0,0,0-1.65,4.53c-.61,3.26,1.66,5.63,2.51,5.58s0-3.78.1-4.85S277.06,105,278.36,107.48Z"/><path class="cls-89" d="M275.32,100.07a7.44,7.44,0,0,0-3,6.67c.36,4.49,2.92,4.29,2.93,3.35s-.49-3.37-.23-4.74,2.48-.75,2.48-.75A33,33,0,0,0,275.32,100.07Z"/><path class="cls-90" d="M327.39,120.05s-4.13,18.87-12.73,27.28C314.66,147.33,324.46,143.48,327.39,120.05Z"/><path class="cls-90" d="M322.8,57.89s2.18,1.7,2.6,7.59-2.15,12.45-2.15,12.45a23.73,23.73,0,0,0,3.6-10.27C327.16,62.29,324.53,58.57,322.8,57.89Z"/><path class="cls-91" d="M296.37,70.24A51,51,0,0,0,307,72.45l6.68.6s-2.22-2.16-7-2.81A48,48,0,0,0,296.37,70.24Z"/><path class="cls-92" d="M320.77,120.46s2.41,0,3.36,3a25.24,25.24,0,0,1,1,4.5l.86-3.32s-1.12-4.21-2.28-5.15c-.83-.69-2.27-1.38-3-1.21Z"/><path class="cls-93" d="M314.25,117.43l.41,3.6a12.74,12.74,0,0,0,4.89-.57l.35-2.18A27.6,27.6,0,0,0,314.25,117.43Z"/><path class="cls-90" d="M327.68,164s17.23,12.58,19.47,16.91,3.14,17.9,6.16,23.78c0,0-2.07-9.61-3.52-17.15s-1.1-7.64-1.9-9.48S334.21,167.24,327.68,164Z"/><path class="cls-90" d="M324.6,234s-8.31,35.55-7.93,37.95,5.75,7.3,6,8.64c0,0-4.11,5.5-3.92,6.72s7.2,8.92,7,11.31c-.05.69-4.6,8.19-4.6,8.19s5.14-7.37,5.39-8.55-6.29-11-6.48-12c-.5-2.59,3.26-4.49,3.39-6.2s-5.1-5.87-5.14-8.65S324.6,234,324.6,234Z"/><path class="cls-90" d="M326.28,318.73s18,40.63,24.07,81.27C350.35,400,349.33,360.34,326.28,318.73Z"/><path class="cls-78" d="M212.47,155.8s-4.64-1-6.57-5-.67-9.92-.67-9.92a102.24,102.24,0,0,0,5.45,9.36C212.49,152.58,213,155.29,212.47,155.8Z"/><path class="cls-94" d="M355.78,134.61l3.22,91.8a6.77,6.77,0,0,0,6.76,6.53H523.89a6.75,6.75,0,0,0,6.76-6.61l2.22-92.86a6.77,6.77,0,0,0-6.81-6.93L362.5,127.61A6.78,6.78,0,0,0,355.78,134.61Z"/><path class="cls-95" d="M523.89,233.19H365.76a7,7,0,0,1-7-6.77l-3.22-91.8a7,7,0,0,1,7-7.26l163.57-1.07a7.06,7.06,0,0,1,5.05,2.1,7,7,0,0,1,2,5.08l-2.21,92.87A7,7,0,0,1,523.89,233.19Zm2.22-106.4h-.05L362.5,127.86a6.52,6.52,0,0,0-6.47,6.75l3.22,91.79a6.49,6.49,0,0,0,6.51,6.29H523.89a6.57,6.57,0,0,0,6.52-6.36l2.21-92.87a6.52,6.52,0,0,0-6.51-6.67Z"/><path class="cls-96" d="M356,139.29H532.68l.28-4.84a7.41,7.41,0,0,0-7.45-7.85L362,127.89a6.14,6.14,0,0,0-6.08,6.25Z"/><polygon class="cls-97" points="364.9 146.7 364.9 199.82 418.98 199.82 418.98 146.42 364.9 146.7"/><rect class="cls-98" x="471.23" y="150.26" width="23.52" height="23.52"/><rect class="cls-99" x="498.99" y="150.26" width="23.52" height="23.52"/><rect class="cls-100" x="443.02" y="150.26" width="23.52" height="23.52"/><rect class="cls-101" x="462.36" y="187.5" width="60.15" height="5.63"/><rect class="cls-101" x="447.31" y="196.07" width="75.2" height="1.74"/><rect class="cls-101" x="448.02" y="176.78" width="14.39" height="1.74"/><rect class="cls-101" x="475.8" y="176.78" width="14.39" height="1.74"/><rect class="cls-101" x="503.56" y="176.78" width="14.39" height="1.74"/><rect class="cls-101" x="443.02" y="198.91" width="24.19" height="1.74"/><rect class="cls-101" x="447.31" y="201.71" width="75.2" height="1.74"/><rect class="cls-101" x="443.02" y="204.51" width="79.49" height="1.74"/><rect class="cls-101" x="443.02" y="207.31" width="79.49" height="1.74"/><rect class="cls-101" x="447.31" y="218.63" width="75.2" height="1.74"/><rect class="cls-101" x="443.02" y="221.43" width="79.49" height="1.74"/><rect class="cls-101" x="443.02" y="224.23" width="79.49" height="1.74"/><rect class="cls-101" x="443.02" y="210.11" width="76.3" height="1.74"/><rect class="cls-101" x="447.31" y="212.91" width="75.2" height="1.74"/><rect class="cls-101" x="443.02" y="215.71" width="64.41" height="1.74"/><g class="cls-102"><path class="cls-103" d="M380.05,189.17a15.39,15.39,0,1,1,15.38-15.39A15.4,15.4,0,0,1,380.05,189.17Zm0-29.77a14.39,14.39,0,1,0,14.38,14.38A14.4,14.4,0,0,0,380.05,159.4Z"/></g><circle class="cls-13" cx="380.05" cy="173.78" r="8.36"/><g class="cls-102"><path class="cls-103" d="M419,161.8a15.39,15.39,0,1,1,15.38-15.38A15.4,15.4,0,0,1,419,161.8ZM419,132a14.39,14.39,0,1,0,14.38,14.39A14.41,14.41,0,0,0,419,132Z"/></g><circle class="cls-13" cx="418.97" cy="146.42" r="7.87" transform="translate(209.21 537.54) rotate(-81.06)"/><g class="cls-102"><polygon class="cls-13" points="362.21 132.08 363.33 130.38 369.41 135.71 368.48 137 362.21 132.08"/><polygon class="cls-13" points="369.56 132.08 368.44 130.38 362.36 135.71 363.3 137 369.56 132.08"/></g><rect class="cls-13" x="473.96" y="131.53" width="54.44" height="2.73"/><polygon class="cls-104" points="187.47 92.12 187.47 115.75 215.73 115.99 216.11 91.36 187.47 92.12"/><polygon class="cls-105" points="216.11 91.36 217.95 94.47 217.03 115.97 215.73 115.99 216.11 91.36"/><polygon class="cls-13" points="192.52 100.1 195.13 96.31 209.24 108.15 207.07 111.04 192.52 100.1"/><polygon class="cls-13" points="209.6 100.1 206.99 96.31 192.88 108.15 195.04 111.04 209.6 100.1"/><path class="cls-106" d="M253.39,370.18H156.7a7.91,7.91,0,0,1-7.91-7.74L147,283.14a7.91,7.91,0,0,1,7.92-8.1H255.57a7.91,7.91,0,0,1,7.91,8.13l-2.17,79.31A7.92,7.92,0,0,1,253.39,370.18Z"/><path class="cls-107" d="M253.39,370.43H156.7a8.21,8.21,0,0,1-8.16-8l-1.81-79.31a8.18,8.18,0,0,1,8.17-8.35H255.57a8.16,8.16,0,0,1,8.16,8.39l-2.17,79.31A8.13,8.13,0,0,1,253.39,370.43ZM154.9,275.29a7.65,7.65,0,0,0-7.67,7.84L149,362.44a7.71,7.71,0,0,0,7.66,7.49h96.69a7.63,7.63,0,0,0,7.67-7.46l2.17-79.3a7.67,7.67,0,0,0-7.66-7.88Z"/><rect class="cls-13" x="173.05" y="291.26" width="50.85" height="2.18"/><rect class="cls-13" x="173.05" y="296.55" width="25.42" height="2.18"/><rect class="cls-13" x="173.05" y="300.98" width="25.42" height="2.18"/><rect class="cls-13" x="201.32" y="300.98" width="20.23" height="2.18"/><rect class="cls-13" x="173.05" y="305.4" width="40.99" height="2.18"/><rect class="cls-13" x="173.05" y="309.82" width="14.59" height="2.18"/><rect class="cls-13" x="190.63" y="323.08" width="25.23" height="2.18"/><rect class="cls-13" x="173.05" y="314.24" width="45.73" height="2.18"/><rect class="cls-13" x="173.05" y="318.66" width="35.18" height="2.18"/><rect class="cls-13" x="173.05" y="323.08" width="16.55" height="2.18"/><rect class="cls-13" x="173.05" y="327.5" width="25.42" height="2.18"/><rect class="cls-13" x="173.05" y="331.92" width="7.29" height="2.18"/><rect class="cls-13" x="183.34" y="331.92" width="26.46" height="2.18"/><rect class="cls-13" x="190.63" y="336.21" width="25.23" height="2.18"/><rect class="cls-13" x="173.05" y="336.21" width="16.55" height="2.18"/><rect class="cls-13" x="173.05" y="340.63" width="25.42" height="2.18"/><rect class="cls-13" x="173.05" y="345.06" width="7.29" height="2.18"/><rect class="cls-13" x="183.34" y="345.06" width="26.46" height="2.18"/><path class="cls-108" d="M512.84,108.84a4.47,4.47,0,1,1-4.47-4.47A4.47,4.47,0,0,1,512.84,108.84Z"/><path class="cls-109" d="M93.94,212.48a5.56,5.56,0,1,1-5.56-5.56A5.56,5.56,0,0,1,93.94,212.48Z"/><circle class="cls-110" cx="521.5" cy="108.84" r="4.47"/><circle class="cls-111" cx="233.33" cy="139.57" r="3.16"/><circle class="cls-112" cx="444.98" cy="279" r="3.16"/><circle class="cls-113" cx="116.46" cy="310.51" r="2.82"/><path class="cls-114" d="M164.62,282.77h-48.8a7.28,7.28,0,0,1-7.28-7l-1.08-32.09a7.28,7.28,0,0,1,7.27-7.53H165.6a7.29,7.29,0,0,1,7.28,7.5l-1,32.1A7.29,7.29,0,0,1,164.62,282.77Z"/><path class="cls-115" d="M164.62,283h-48.8a7.5,7.5,0,0,1-7.53-7.28l-1.09-32.09a7.52,7.52,0,0,1,2.12-5.49,7.42,7.42,0,0,1,5.41-2.3H165.6a7.53,7.53,0,0,1,7.53,7.76l-1,32.1A7.51,7.51,0,0,1,164.62,283Zm-49.89-46.66a7,7,0,0,0-7,7.27l1.09,32.09a7,7,0,0,0,7,6.8h48.8a7,7,0,0,0,7-6.82l1-32.09a7,7,0,0,0-7-7.25Z"/><polygon class="cls-13" points="128.83 247.64 116.8 261.59 129.05 271.99 129.05 266.62 121.96 260.48 128.54 253.04 128.83 247.64"/><polygon class="cls-13" points="149.98 248.27 162.01 262.21 149.76 272.61 149.76 267.25 156.84 261.11 148.96 252.76 149.98 248.27"/><polygon class="cls-13" points="131.45 271.99 141.93 248.89 146.86 248.89 134.99 271.99 131.45 271.99"/><path class="cls-116" d="M492.94,348.82h-61a9.12,9.12,0,0,1-9.11-8.8l-1.35-40.15a9.1,9.1,0,0,1,9.1-9.42h63.63a9.11,9.11,0,0,1,9.11,9.39L502.05,340A9.11,9.11,0,0,1,492.94,348.82Z"/><path class="cls-115" d="M492.94,349.07h-61a9.32,9.32,0,0,1-9.36-9l-1.35-40.15a9.34,9.34,0,0,1,9.35-9.68h63.63a9.36,9.36,0,0,1,9.36,9.64L502.3,340A9.31,9.31,0,0,1,492.94,349.07Zm-62.4-58.37a8.85,8.85,0,0,0-8.85,9.16L423,340a8.82,8.82,0,0,0,8.86,8.56h61A8.82,8.82,0,0,0,501.8,340L503,299.83a8.86,8.86,0,0,0-8.86-9.13Z"/><rect class="cls-101" x="433.67" y="296.91" width="55.91" height="33.21"/><polygon class="cls-13" points="456.67 305.15 456.67 321.88 470.96 312.75 456.67 305.15"/><rect class="cls-101" x="433.67" y="336.24" width="55.91" height="3.04"/><rect class="cls-13" x="433.67" y="336.24" width="14.47" height="3.04"/><path class="cls-117" d="M392.71,286.42l-2.92,8.34C391.4,290.15,393.72,287.16,392.71,286.42Zm-2.92,8.34-2.92,8.35C387.6,302.89,388.17,299.38,389.79,294.76Zm2.92-8.34-2.92,8.34C391.4,290.15,393.72,287.16,392.71,286.42Zm-2.92,8.34-2.92,8.35C387.6,302.89,388.17,299.38,389.79,294.76Zm8.42,7.24,2.84,1.6,3.06-8.35-3.28-.55c.06-.31.12-.62.16-.92a21.37,21.37,0,0,0,.27-4.17l3.43-2.15-1.56-7.36-3.29,3.15a9.41,9.41,0,0,0-1.68-2.45,6,6,0,0,0-.57-.56l2-4.64-5.34-1.74h0L393,278.54a8.77,8.77,0,0,0-3.62.85l-.59-4.42-5.89,4.45,1.36,3.92a22.31,22.31,0,0,0-2.87,4.18l-2.84-1.6-3,8.35,3.27.55a23.14,23.14,0,0,0-.43,5.09l-3.43,2.15,1.56,7.36,3.29-3.14a9.27,9.27,0,0,0,2.25,3l-2,4.65,5.26,2.05.82-3,.55-2a8.94,8.94,0,0,0,3.63-.85l.58,4.42,5.89-4.46-1.36-3.91a23.16,23.16,0,0,0,2.32-3.21C397.85,302.66,398,302.33,398.21,302Zm-8.42-7.24c-1.62,4.62,0,9.37-2.92,8.35s-4-5.6-2.39-10.2,5.3-7.52,8.23-6.49S391.4,290.15,389.79,294.76Zm2.92-8.34-2.92,8.34C391.4,290.15,393.72,287.16,392.71,286.42Zm-2.92,8.34-2.92,8.35C387.6,302.89,388.17,299.38,389.79,294.76Z"/><path class="cls-118" d="M401.05,303.6l3.06-8.35L401,293.78l-.51-.24.33-4.6,3.46-1.69-1.14-7.15-7.54-2.45L397,281l2.62-5.36-5.34-1.74-2.2-.71-5.27-2.06-1,3.6-4.58-2.18L375.33,277l1.79,4.82-5.51,15.27L368.89,307l5.23.57-1.7,3.93,5.27,2.06,7.54,2.45L384,313.55l-.76-1.45,2.79.91,4.76,1.55,5.89-4.46-3.64-4.29,4.6-2.83Zm-16.57-10.69c1.62-4.61,5.3-7.52,8.23-6.49l-2.92,8.34-2.92,8.35C383.94,302.08,382.87,297.51,384.48,292.91Z"/><path class="cls-119" d="M393.5,301.14l3.06-8.35-3.28-.55a22.53,22.53,0,0,0,.44-5.08l3.43-2.15-1.56-7.36-3.29,3.14a9.32,9.32,0,0,0-2.25-3l2-4.64-5.27-2.06-1.36,5a8.93,8.93,0,0,0-3.63.84l-.58-4.41L375.33,277l1.36,3.92a22.91,22.91,0,0,0-2.88,4.19l-2.83-1.6-3.06,8.35,3.28.55a22.44,22.44,0,0,0-.44,5.08l-3.43,2.15L368.9,307l3.28-3.14a9.32,9.32,0,0,0,2.25,3l-2,4.64,5.27,2.05,1.36-5a8.94,8.94,0,0,0,3.63-.85l.58,4.42,5.89-4.46-1.36-3.91a22.91,22.91,0,0,0,2.88-4.19Zm-14.18-.49c-2.93-1-4-5.6-2.38-10.2s5.29-7.52,8.22-6.49,4,5.59,2.38,10.2S382.25,301.67,379.32,300.65Z"/><polygon class="cls-120" points="404.69 287.46 397.15 285.01 393.72 287.16 401.26 289.61 404.69 287.46"/><polygon class="cls-121" points="396.7 310.1 389.15 307.64 387.79 303.73 395.34 306.19 396.7 310.1"/><polygon class="cls-120" points="390.05 277.79 394.19 278.99 395.58 277.65 398.33 278.54 399.61 275.6 392.06 273.14 390.05 277.79"/><path class="cls-120" d="M379.05,308.53l4,1.64-.33-2.49A7.08,7.08,0,0,1,379.05,308.53Z"/><path class="cls-120" d="M379.66,285.9l6.66,3.52a10.23,10.23,0,0,1,1.71-1.81S386.3,280.27,379.66,285.9Z"/><polygon class="cls-122" points="226.91 36.96 233.33 49.81 229.04 51.76 223.04 39.96 226.91 36.96"/><polygon class="cls-123" points="82.46 336.3 88.4 342.82 90.73 340.13 85.12 333.96 82.46 336.3"/><polygon class="cls-124" points="384.24 115.37 378.26 119 375.86 114.45 382.4 110.64 384.24 115.37"/><polygon class="cls-124" points="413.68 345.08 405.11 351.17 402.71 346.63 411.04 341.77 413.68 345.08"/><polygon class="cls-125" points="402.36 84.3 400.91 50.64 444.98 50.64 443.17 84.2 402.36 84.3"/><polygon class="cls-126" points="400.91 50.64 399.59 52.62 400.91 84.3 402.36 84.3 400.91 50.64"/><polygon class="cls-13" points="415.55 57.36 408.63 56.62 409.58 79.68 415.55 79.1 415.55 76.71 412.09 76.79 411.69 59.01 415.55 59.12 415.55 57.36"/><polygon class="cls-13" points="429.71 57.36 436.62 56.62 435.68 79.68 429.71 79.1 429.71 76.71 433.17 76.79 433.56 59.01 429.71 59.12 429.71 57.36"/><polygon class="cls-127" points="98.48 157.98 99.46 135.03 69.42 135.03 70.66 157.91 98.48 157.98"/><polygon class="cls-128" points="99.46 135.03 100.36 136.39 99.46 157.98 98.48 157.98 99.46 135.03"/><path class="cls-13" d="M87.89,139.65a20.7,20.7,0,0,1,3.87.14c.59.27-.15,5.64-.15,5.64l1.32,1.2-1.23,1.19s.06,5.44-.71,5.9-3.42,0-3.42,0v-1.36a7.64,7.64,0,0,0,2.52-.16c.35-.29.32-5,.32-5l.58-.63-.58-.69s.11-3.39,0-4.32c0-.62-2.56-.65-2.56-.65Z"/><path class="cls-13" d="M80.34,139.65a20.7,20.7,0,0,0-3.87.14c-.58.27.15,5.64.15,5.64l-1.31,1.2,1.22,1.19s-.06,5.44.71,5.9,3.43,0,3.43,0v-1.36a7.63,7.63,0,0,1-2.52-.16c-.36-.29-.32-5-.32-5l-.59-.63.59-.69s-.11-3.39,0-4.32c0-.62,2.56-.65,2.56-.65Z"/><path class="cls-95" d="M352,87.33l-7.36-19.27,19.09,4Zm-6.57-18.59,6.72,17.58,10.7-13.94Z"/><rect class="cls-95" x="402.31" y="355.71" width="10.94" height="0.5" transform="translate(-120.39 474.41) rotate(-53.76)"/><polygon class="cls-95" points="344.04 279.16 337.09 270.51 337.48 270.2 344.43 278.85 344.04 279.16"/><polygon class="cls-95" points="129.71 339.88 115.84 329.82 116.14 329.42 130 339.48 129.71 339.88"/><rect class="cls-95" x="114.36" y="334.4" width="17.13" height="0.5" transform="translate(-217.77 229.64) rotate(-52.7)"/><rect class="cls-95" x="102.71" y="184.72" width="0.5" height="10.14" transform="translate(-112.94 192.66) rotate(-62.28)"/><polygon class="cls-95" points="452.17 71.37 451.8 71.04 462.17 59.21 462.55 59.54 452.17 71.37"/><rect class="cls-95" x="252.56" y="99.55" width="0.5" height="10.41" transform="translate(-20.2 123.56) rotate(-26.45)"/><rect class="cls-95" x="175.25" y="261.73" width="15.54" height="0.5" transform="translate(-125.45 178.47) rotate(-39.91)"/></g></g></g></svg>